<svg data-v-0dd9719b="" version="1.0" xmlns="http://www.w3.org/2000/svg" xmlns:xlink="http://www.w3.org/1999/xlink" width="100%" height="100%" viewBox="0 0 340.000000 250.000000" preserveAspectRatio="xMidYMid meet" color-interpolation-filters="sRGB" style="margin: auto;">  <rect data-v-0dd9719b="" x="0" y="0" width="100%" height="100%" fill="url(#watermark)" fill-opacity="1" class="watermarklayer"></rect> <g data-v-0dd9719b="" fill="#e3c4a8" class="icon-text-wrapper icon-svg-group iconsvg" transform="translate(55.595001220703125,94.99129676818848)"><g class="iconsvg-imagesvg" transform="translate(0,0)"><g><rect fill="#e3c4a8" fill-opacity="0" stroke-width="2" x="0" y="0" width="60" height="60.01740504746377" class="image-rect"></rect> <svg filter="url(#colors1114224163)" x="0" y="0" width="60" height="60.01740504746377" filtersec="colorsf7747835877" class="image-svg-svg primary" style="overflow: visible;"><svg xmlns="http://www.w3.org/2000/svg" viewBox="5 4.992525577545166 89.99308776855469 90.01959991455078" x="0px" y="0px"><path d="M94.9171 8.61088C94.9171 7.53584 95.221 6.40567 94.6133 5.33064C92.5138 5.24794 90.3867 5.11012 88.2873 5.08255C81.3536 5.02742 74.3923 4.97229 67.4309 4.99986C60.0276 5.02742 52.6243 5.13768 45.221 5.22038C39.5028 5.30307 33.8122 5.38577 28.0939 5.46846C24.1436 5.55116 20.1934 5.63385 16.2431 5.71655C14.558 5.74411 12.8453 5.71655 11.1602 5.74411C9.53039 5.74411 7.92818 5.77168 6.32597 5.82681C6.07735 5.82681 5.82873 5.9922 5.52486 6.07489C5.46961 6.48837 5.38674 6.84672 5.35912 7.20506C5.33149 8.22497 5.30387 9.21731 5.33149 10.2372C5.35912 13.0489 5.41436 15.8329 5.41436 18.6446C5.41436 22.0075 5.38674 25.3429 5.38674 28.7058C5.38674 33.3368 5.44199 37.9677 5.38674 42.6262C5.33149 48.0565 5.13812 53.4593 5.08287 58.8896C5.02762 63.2449 5.1105 67.6277 5.08287 71.983C5.08287 78.5986 5.02762 85.2418 5 91.9126C5 92.7395 5 93.5665 5 94.6415C5.82873 94.7793 6.49171 94.9723 7.1547 94.9723C12.6243 94.9999 18.0939 94.9999 23.5912 94.9999C27.4033 94.9999 31.2155 94.9999 35.0276 94.9999C36.9613 94.9999 38.895 95.0274 40.8287 94.9999C44.1989 94.9723 47.5414 94.8896 50.9116 94.8896C54.1436 94.8896 57.3481 94.9723 60.5801 94.9723C64.3923 94.9723 68.2044 94.862 72.0166 94.862C75.1934 94.862 78.3702 94.9723 81.5193 94.9447C85.4144 94.9172 89.337 94.8345 93.232 94.7518C93.674 94.7518 94.116 94.6691 94.6685 94.614C94.6961 94.0075 94.7514 93.5113 94.7514 93.0152C94.8066 88.7426 94.8895 84.47 94.9171 80.1974C94.9448 76.3383 94.8619 72.4792 94.8619 68.6201C94.8619 63.3 94.9448 57.9524 94.9171 52.6323C94.8895 46.127 94.8066 39.594 94.779 33.0887C94.7514 27.5757 94.7514 22.0626 94.779 16.5496C94.7514 13.9309 94.9171 11.2571 94.9171 8.61088ZM91.0221 32.2342C91.1602 32.7303 90.884 33.0887 90.4696 33.3643C89.4751 34.0535 88.3425 34.1637 87.1823 34.1637C86.6022 34.1637 85.9945 34.1637 85.3867 34.1637C85.2762 34.4945 85.1934 34.7426 85.1105 34.9907C84.9724 35.0458 84.8619 35.1009 84.7238 35.1285C83.6464 35.1561 82.6243 35.0182 81.6575 34.4669C80.221 33.64 78.7845 32.813 77.3204 32.0688C76.768 31.7931 76.1326 31.7104 75.3315 31.5175C74.5304 30.0565 74.116 28.2924 73.6464 26.5558C73.7569 26.5006 73.895 26.4455 74.0055 26.3904C74.1989 26.6109 74.4751 26.7763 74.6133 27.0244C76.5193 30.3597 79.5856 31.9034 83.1492 32.7579C84.4199 33.0611 85.6906 33.2265 86.9613 32.8406C89.5856 32.0963 91.2431 30.4424 91.7403 27.7135C91.9613 26.5282 91.5746 25.4256 90.9945 24.4332C90.5249 23.6063 89.6133 23.4133 88.7569 23.1928C88.4807 23.1377 88.2044 23.055 87.9282 22.9723C87.9282 22.862 87.9558 22.7518 87.9558 22.6691C88.895 22.3934 89.8619 22.421 90.7735 22.6691C91.6575 22.9172 92.1823 23.7165 92.3481 24.6262C92.7348 26.7211 92.5967 28.7334 91.4365 30.5803C91.1602 31.104 90.8287 31.5726 91.0221 32.2342ZM79.6961 73.3337C79.6133 70.1637 79.5028 66.9937 79.3923 63.8237C79.2541 59.8268 79.0884 55.8574 78.895 51.8605C78.6464 46.6783 78.3425 41.496 78.0663 36.3138C78.0387 35.542 77.9834 34.7701 77.9558 33.8054C79.7238 34.0259 80.8011 35.3766 82.4309 35.542C82.5138 37.2234 82.5967 38.7671 82.6796 40.3383C82.8729 44.225 83.0387 48.1392 83.2044 52.0259C83.4254 57.0152 83.5912 62.032 83.8122 67.0213C83.9503 70.6323 84.1436 74.2709 84.2818 77.8819C84.337 78.9019 84.3923 79.8942 84.3094 80.9141C84.2541 81.4654 84.0331 82.0994 83.674 82.5129C82.2376 84.3322 80.6906 85.9861 78.674 87.1714C78.3149 87.3919 77.9558 87.8054 77.3757 87.447C77.5414 87.1714 77.6519 86.8682 77.8453 86.6476C79.0884 84.9662 79.779 83.0642 79.8066 81.0244C79.8066 78.4608 79.7514 75.8973 79.6961 73.3337ZM80.6354 86.2893C81.5746 85.5726 82.4586 84.7457 83.3425 83.9738C83.6188 83.7533 83.895 83.5052 84.2541 83.202C84.5856 83.5052 84.9171 83.7533 85.1657 84.0565C86.7956 86.0136 88.7569 87.5849 90.884 88.9907C91.2707 89.2388 91.5193 89.7074 91.8232 90.0933C91.7956 90.2311 91.768 90.3414 91.7127 90.4792C91.2431 90.5619 90.7735 90.6997 90.3039 90.6997C86.7127 90.7548 83.1215 90.7824 79.5304 90.81C78.8398 90.81 78.1492 90.8651 77.4586 90.8651C76.8784 90.8651 76.2983 90.81 75.7735 90.7824C75.4144 90.0382 75.8287 89.7349 76.2707 89.4317C77.7348 88.3842 79.1989 87.3643 80.6354 86.2893ZM90.4144 88.0259C90.0829 87.8329 89.6685 87.6951 89.4199 87.4195C88.3149 86.3169 87.2099 85.2143 86.1602 84.0841C85.4144 83.2847 85.1657 82.2648 85.1381 81.1622C84.9724 77.2755 84.8066 73.3613 84.6133 69.4746C84.3923 64.761 84.116 60.0198 83.895 55.3061C83.674 50.6201 83.5359 45.9616 83.3425 41.2755C83.2873 40.0902 83.2044 38.9049 83.1492 37.692C83.1215 37.251 83.1492 36.7824 83.1492 36.2587C83.5359 36.176 83.895 36.1484 84.2265 36.0106C84.6685 35.8176 85.0829 35.542 85.5249 35.349C85.9116 35.1836 86.2983 35.0182 86.8232 34.8253C86.9613 35.349 87.0994 35.6798 87.1271 36.0381C87.4586 42.4884 87.7901 48.9662 88.1215 55.4164C88.2873 58.8896 88.5083 62.3904 88.6464 65.8636C88.7845 69.1162 88.895 72.3689 89.0055 75.6216C89.0884 77.4133 89.2265 79.2051 89.2265 80.9968C89.2265 83.0918 89.6961 85.0764 90.4144 87.0336C90.4972 87.2816 90.5525 87.5297 90.6354 87.7778C90.5525 87.8605 90.4696 87.9432 90.4144 88.0259ZM74.3646 44.1698C74.3923 44.666 74.7238 45.2173 74.3094 45.7135C73.4807 45.1622 73.011 44.5833 72.4586 43.3153C73.0387 42.4884 73.6188 41.6063 74.2265 40.7518C74.337 40.7793 74.4199 40.8345 74.5304 40.862C74.4475 41.3582 74.3094 41.8544 74.2818 42.3781C74.2541 42.9845 74.337 43.591 74.3646 44.1698ZM74.116 46.9815C75.5249 48.9386 75.7459 51.0887 75.1105 53.2939C74.3094 56.078 72.6519 58.1729 69.7238 59.1101C68.9503 59.3582 68.2044 59.689 67.4586 60.2679C67.8177 60.4332 68.1492 60.6538 68.5083 60.7365C71.547 61.5358 73.7017 63.6032 75.6077 65.9187C76.0497 66.47 76.326 67.2143 76.4917 67.9034C77.1547 70.6323 76.9613 73.2786 75.6077 75.787C74.9724 76.9723 74.0884 78.0749 74.1989 79.7839C73.1768 79.1499 73.3978 78.3781 73.5359 77.8268C73.7017 77.1928 74.1713 76.6415 74.6133 75.8973C74.116 75.153 74.2265 74.5466 74.8343 73.8299C76.8785 71.4041 76.2983 68.372 75.2762 66.6078C75.1657 66.4149 74.9171 66.277 74.6409 66.1943C75 67.5726 75.5801 68.8957 75.3867 70.3291C75.3315 70.715 75.1934 71.1285 75.1105 71.4317C74.1989 71.8176 74.1989 71.8176 73.5083 71.6798C73.5083 71.5971 73.453 71.4593 73.4807 71.4317C74.558 70.274 74.4475 68.9784 74.0331 67.5726C73.1215 64.4853 71.0497 62.6109 68.0111 61.7288C67.0994 61.4532 66.2155 61.0672 65.3591 60.7365C64.8895 59.8544 65.442 59.4409 65.9945 59.1101C66.3812 58.8896 66.8508 58.8069 67.2928 58.6966C69.558 58.2005 71.547 57.346 73.011 55.4164C74.8895 52.9355 74.9171 49.5726 73.0663 47.0917C71.9889 45.6584 69.0331 44.5006 66.6575 45.4654C64.8895 46.1821 64.0331 47.5603 63.5635 49.2418C63.232 50.4547 63.6464 51.5297 64.558 52.3567C65.1105 52.8253 65.7735 53.1561 66.4088 53.542C66.6298 53.6798 66.8232 53.8176 67.1547 54.0381C66.0221 54.6446 65.0829 54.8927 64.0884 54.1484C63.8398 53.9554 63.5635 53.7901 63.2873 53.6247C62.5138 53.1285 62.1823 52.4118 62.3757 51.5022C62.6243 50.2893 62.9006 49.104 63.1768 47.8911C63.2044 47.7257 63.3149 47.5328 63.2873 47.3674C63.0663 46.2648 63.674 45.7411 64.558 45.3827C65.4972 45.0244 66.4365 44.6936 67.4033 44.3628C67.7072 44.2525 68.0387 44.1974 68.2873 44.0045C69.0332 43.4256 69.7514 43.5083 70.442 44.0045C71.7127 44.8865 73.1492 45.6308 74.116 46.9815ZM59.3094 71.4041C59.8895 71.5144 60.221 71.4593 60.2762 71.5971C60.7735 72.4792 61.6298 73.1683 61.547 74.3812C61.4917 75.2357 61.6298 76.0902 61.6851 77.055C60.7182 77.3582 60.4144 78.5435 59.337 78.8192C58.8674 77.8268 58.3978 76.8896 57.9558 75.9524C57.6519 75.2908 57.7348 74.6568 58.2597 74.1882C59.0055 73.4715 59.6685 72.7548 59.3094 71.4041ZM61.326 69.64C61.547 69.64 61.8232 69.6124 62.0994 69.64C62.3757 69.6675 62.6243 69.7227 63.011 69.7778C63.8674 69.0887 64.3923 68.0688 65.6906 68.2617C66.8785 68.4547 67.4586 69.2816 68.0111 70.2188C68.2873 70.2188 68.5635 70.2464 68.8398 70.2464C69.3923 70.2188 69.8619 70.4118 70 70.9907C70.1381 71.542 69.9171 72.0106 69.4751 72.3138C69.0608 72.5894 68.5912 72.7824 68.0939 73.0305C67.8177 72.8375 67.5138 72.6997 67.2928 72.4792C66.1602 71.3766 64.8895 71.4041 63.6464 72.0933C62.8729 72.5067 62.2652 72.4792 61.6575 71.9003C60.9945 71.2939 60.9116 70.6323 61.326 69.64ZM62.3757 78.13C63.3149 79.4807 63.3978 80.4179 62.7072 81.8238C61.9337 81.1622 61.1878 80.5282 60.4144 79.8942C60.8564 78.764 61.3812 78.1576 62.3757 78.13ZM63.5359 82.4026C63.6188 81.9064 63.9227 81.4378 64.1713 80.8314C64.8066 81.4378 64.5856 81.8513 64.4475 82.2097C63.8122 83.836 63.8674 85.545 63.8122 87.2265C63.7845 87.7502 64.0331 88.3015 64.1713 88.8253C64.2541 89.1009 64.3094 89.4042 64.4475 89.9279C64.0608 89.7349 63.7569 89.6798 63.7017 89.542C63.4254 88.6875 63.011 87.7778 63.011 86.9233C63.0387 85.3797 63.2873 83.8911 63.5359 82.4026ZM64.3646 85.104C64.3923 84.5251 64.558 83.9463 64.7514 83.395C64.9448 82.7885 65.221 82.2097 65.4696 81.5757C65.2762 81.1622 65.0829 80.7487 64.8895 80.3352C65.6077 78.8467 66.9061 77.4133 65.663 75.5113C64.4199 76.1453 64.4199 76.1453 65.2762 77.7717C65.0829 78.4608 64.9171 79.1775 64.1713 79.6461C63.6464 78.3781 63.0939 77.1928 62.6243 75.9524C62.1547 74.712 62.4862 73.5267 63.3425 73.0305C64.558 72.3414 66.4088 72.5067 67.1823 73.4715C67.4309 73.7747 67.5967 74.2158 67.6243 74.6017C67.8729 76.8345 67.7624 78.9845 66.6575 81.0244C65.8564 82.4853 65.2762 84.0014 65.1934 85.7104C65.1657 86.0963 65.0276 86.4823 64.9171 86.9784C64.0608 86.372 64.337 85.6829 64.3646 85.104ZM68.9779 79.7012C69.337 81.1622 67.8177 80.9692 67.3481 81.6859C67.3204 80.1147 67.7348 79.6461 68.9779 79.7012ZM68.5083 77.2755C68.4807 76.5037 68.4807 75.7043 68.4807 74.9325C68.4807 73.5818 69.3646 72.8927 70.6906 73.1132C71.0773 73.9401 71.4365 74.712 71.7956 75.4562C72.1271 76.1453 71.9613 77.2755 71.3812 77.7441C70.8564 78.1852 70.2762 78.5159 69.6961 78.9019C68.8122 78.7089 68.5359 78.0749 68.5083 77.2755ZM72.2652 78.2954C72.3757 79.4807 72.2376 79.6185 70.6077 79.8115C71.1326 79.0672 71.4365 78.4057 72.2652 78.2954ZM71.9889 72.9754C72.8729 72.6721 73.5635 72.8927 74.2265 73.3888C73.8122 74.1882 73.4254 74.9325 73.0387 75.7043C72.1547 75.0979 71.8785 74.3812 71.9889 72.9754ZM55.663 89.9003C55.8011 90.9202 55.3867 91.3061 54.337 91.1683C53.8122 91.0856 53.2597 91.1132 52.7348 91.1683C51.6851 91.251 51.4641 91.1683 50.8564 90.1484C50.9945 89.7901 51.1602 89.4317 51.326 89.0458C51.2431 88.6875 51.1326 88.3567 51.1326 87.9983C51.0773 87.1163 51.8508 86.1239 52.9282 86.7855C53.3978 87.0887 53.8398 87.0887 54.3646 86.9509C54.8895 86.813 55.4696 86.6476 55.884 87.1989C56.2707 87.7502 55.9945 88.2464 55.7182 88.715C55.663 88.8253 55.6077 88.9631 55.4972 89.2112C55.5525 89.4593 55.6354 89.6798 55.663 89.9003ZM53.9227 85.6277C53.2044 85.0764 52.5414 84.6354 51.547 84.4976C50.4144 84.3597 50.221 83.2296 50.9945 82.127C51.6575 82.127 52.3481 82.127 53.0663 82.127C53.4807 82.9539 53.7569 83.6982 54.2818 84.277C54.8066 84.8559 55.5801 85.1867 56.2431 85.6277C55.4144 86.2066 54.6961 86.2066 53.9227 85.6277ZM52.9834 80.9968C51.1878 81.0519 49.3923 81.0795 47.5967 81.1071C46.9889 81.1071 46.5193 80.9141 46.4641 80.0045C48.9227 79.5634 51.4088 79.7288 54.0331 79.7012C53.9503 80.6109 53.6188 80.9692 52.9834 80.9968ZM50.1657 85.9861C50.0552 85.9861 49.9447 86.0136 49.8619 86.0136C49.8343 85.7104 49.8066 85.3796 49.7514 84.9386C50.4696 85.3796 50.4696 85.3796 50.1657 85.9861ZM49.5028 90.7548C48.5912 92.0228 47.6519 91.4164 46.7403 91.0029C46.3536 91.251 46.0221 91.5818 45.663 91.6369C45.2486 91.6921 44.7514 91.5818 44.3923 91.3888C43.9503 91.1408 43.895 90.6446 44.0608 90.176C44.337 89.4042 44.5304 88.6048 44.8895 87.8881C45.0276 87.5849 45.4972 87.3643 45.884 87.2541C46.6298 87.0336 47.3757 86.9509 48.0387 86.4547C48.6188 86.0412 49.1713 86.372 49.558 86.8406C49.8066 87.8329 49.2265 88.4669 48.7293 89.1009C49.0055 89.6798 49.2541 90.2311 49.5028 90.7548ZM48.3425 84.6905C47.9006 84.8835 47.5138 85.2143 47.1271 85.5175C46.2983 86.179 45.4696 86.813 44.0884 86.372C44.8619 85.738 45.663 85.297 46.1878 84.6354C46.7127 83.9738 47.0166 83.1193 47.5138 82.1545C48.0387 82.0718 48.7569 81.9616 49.5304 81.8513C49.9171 83.5879 49.6133 84.1117 48.3425 84.6905ZM45.5801 78.764C46.5746 78.323 52.4862 77.9646 54.5304 78.2127C54.7238 78.2403 54.8895 78.3781 55.1381 78.5159C54.0331 79.1775 46.8508 79.398 45.5801 78.764ZM53.2597 77.689C52.9834 77.7441 52.7072 77.7166 52.4309 77.7166C50.884 77.7166 49.3094 77.7441 47.7624 77.7441C47.4309 77.7441 47.0718 77.6614 46.7403 77.6339C46.7403 77.5236 46.7403 77.4133 46.7403 77.3306C46.8785 77.2479 47.0442 77.1101 47.1823 77.1101C49.3094 77.0274 51.4365 76.9723 53.5359 76.9172C53.8122 77.3858 53.6464 77.6339 53.2597 77.689ZM27.3204 76.0075C27.2376 76.0075 27.1271 76.0075 27.0442 75.98C26.9061 75.0979 26.768 74.2434 26.6298 73.3613C27.4586 73.1683 27.4586 73.1683 28.4254 73.6369C28.0663 74.4363 27.7072 75.2357 27.3204 76.0075ZM29.7514 79.5358C29.9448 79.6185 30.1105 79.7839 30.2762 79.9218C30.2486 80.0045 30.221 80.1147 30.1657 80.1974C29.0331 80.225 28.0939 79.6461 27.3757 78.8192C26.8785 78.2679 27.1547 77.5236 27.4862 76.6966C27.7348 77.055 28.011 77.2755 28.0663 77.5512C28.232 78.5435 28.8122 79.1499 29.7514 79.5358ZM27.3204 65.5879C26.2431 67.4899 26.1602 69.5022 27.0994 71.5144C27.1823 71.6798 27.2099 71.8452 27.2652 72.0106C26.2983 72.176 25.884 72.0381 25.6354 71.2663C25.4144 70.5221 25.3315 69.7502 25.221 68.9784C25.1657 68.6752 25.221 68.372 25 67.9861C24.8895 68.179 24.6961 68.372 24.6409 68.5649C24.2265 70.3842 24.3094 72.1208 25.3591 73.7196C25.8564 74.4639 26.105 75.2633 25.9116 76.2005C25.8287 76.6139 26.0221 77.0826 26.1602 77.496C26.6298 78.764 26.2707 79.8391 25.4144 80.7763C25.3315 80.859 25.1934 80.859 25.0829 80.8865C25.0276 80.7763 24.9171 80.666 24.9448 80.6109C25.663 79.1499 25.2486 77.7166 24.6961 76.3659C23.7569 74.1607 23.4807 71.8452 23.7017 69.5022C23.7569 68.9509 23.8122 68.372 24.0331 67.9034C25.5525 64.5404 27.9006 62.032 31.547 60.957C32.1823 60.764 32.8729 60.7365 33.6188 60.4057C33.3149 60.2679 33.0387 60.13 32.7348 59.9646C31.326 59.3031 29.8895 58.6966 28.5359 57.9248C26.8232 56.96 25.7459 55.444 25.1934 53.542C24.5304 51.3643 24.5856 49.1867 25.1381 47.009C25.1934 46.8437 25.2486 46.6507 25.3039 46.4853C25.9116 44.4731 26.4917 42.4608 24.8619 40.5864C25.4972 40.2005 25.8011 40.5037 26.0221 40.862C26.4641 41.5512 26.8785 42.2679 27.2652 42.9845C27.5967 43.591 27.3204 44.1147 27.0718 44.666C26.6022 45.7686 26.1878 46.8712 25.8011 48.0014C25.6906 48.3322 25.7182 48.7181 25.663 49.1867C26.4088 47.9187 27.0166 46.7334 27.7624 45.6032C28.4254 44.6109 29.4199 44.032 30.6077 43.8391C31.1878 43.7288 31.6575 43.8391 32.1547 44.1698C32.6243 44.5006 33.1768 44.8038 33.7293 44.9692C36.1602 45.6859 37.2652 47.6155 38.0939 49.7656C38.3978 50.5649 38.1492 51.3643 37.5414 52.6048C36.7403 52.7701 36.1326 53.2388 35.8011 54.0933C35.5525 54.7273 35.0276 54.8927 34.3094 54.6997C33.5359 54.4792 32.7348 54.4241 31.8785 54.2862C32.0442 53.6798 32.4586 53.8176 32.7901 53.8176C33.674 53.8176 34.558 53.7901 35.1934 53.0458C36.0497 52.0535 36.768 50.8957 36.7127 49.6002C36.6298 47.9738 35.6077 46.7885 34.1436 46.127C32.1547 45.2449 30.1934 45.3551 28.4254 46.7334C26.6298 48.1392 26.105 50.0688 26.3812 52.2464C26.8232 55.7472 29.1989 57.5389 32.2376 58.7242C33.2597 59.1377 34.3094 59.4685 35.1934 60.2679C34.8066 61.2878 34.0884 61.5358 33.2044 61.6737C30.6906 62.1423 28.5912 63.3276 27.3204 65.5879ZM29.8066 42.8743C29.8895 41.8819 30.3867 41.8268 31.0221 41.7441C31.105 42.7089 30.5801 42.764 29.8066 42.8743ZM32.2376 41.3858C33.0663 42.13 33.5635 42.957 34.1436 43.9218C32.8453 44.1147 32.4033 43.2878 31.9337 42.6262C31.6298 42.2403 31.6851 42.1852 32.2376 41.3858ZM40.9392 54.81C41.2431 55.1683 41.4088 55.3337 41.5193 55.4991C41.9337 56.1331 41.7127 56.7946 40.9945 57.0152C40.7735 57.0703 40.5249 57.0979 40.3039 57.0703C38.7569 56.9325 37.6796 54.5619 38.5359 53.2663C38.9227 52.6599 39.2541 51.9983 39.6685 51.2265C39.9724 51.4746 40.3039 51.64 40.4972 51.8881C42.2652 54.176 44.0055 56.4639 45.7459 58.7793C46.4917 59.7992 46.547 60.4608 46.0221 61.0121C45.5525 61.5083 44.558 61.591 43.7017 61.0397C41.4088 59.5236 38.8398 58.6966 36.1878 58.0351C35.663 57.8973 35.1934 57.6216 34.6961 57.3735C34.3923 57.2081 34.0884 57.0427 33.7293 56.8222C33.3978 57.1806 33.1215 57.4562 32.8177 57.7594C32.6796 57.7594 32.5414 57.7594 32.4309 57.7319C30.442 57.0979 28.8122 56.0228 27.7901 54.0933C26.6298 51.8881 27.0442 49.4899 28.8674 47.6706C29.8343 46.7058 31.2155 46.4026 32.5967 46.7058C34.0608 47.009 35.0552 47.836 35.3867 49.3796C35.663 50.6201 35.3591 51.6675 34.4199 52.4945C33.5083 53.2939 32.4309 53.4041 31.326 52.9631C30.9392 52.8253 30.6077 52.5772 30.3039 52.4118C30.0276 51.7778 30.0276 51.2265 30.4696 50.7855C31.105 50.2066 31.4917 51.1438 32.1823 51.1162C32.2099 50.8682 32.3757 50.5649 32.2652 50.4271C32.0442 50.1239 31.7403 49.738 31.4088 49.6277C30.663 49.4072 29.8895 49.4899 29.3923 50.1515C28.8674 50.813 28.7569 51.64 29.1713 52.3567C29.9171 53.6798 30.7459 54.9754 32.4309 55.2786C32.6519 55.3061 32.8729 55.4164 33.0663 55.4991C34.7514 56.3536 35.3039 56.2433 36.6022 54.81C36.7127 54.6721 36.7403 54.4792 36.8508 54.2035C37.5138 55.1959 37.9834 55.9401 38.5083 56.6017C39.1436 57.4286 40.0552 57.7594 41.0773 57.5113C41.6575 57.3735 42.2099 57.0979 42.2652 56.3536C42.3757 55.6645 42.1547 55.3337 40.9392 54.81ZM47.5967 62.1423C47.0718 63.0519 46.9889 63.0795 45.9945 62.859C45.9668 62.7487 45.9392 62.6384 45.9116 62.5558C46.4088 62.4179 46.9337 62.3077 47.5967 62.1423ZM45.7182 63.6859C44.7514 64.127 44.2541 63.7686 43.8122 63.4103C42.3204 62.1698 40.5801 61.4532 38.7293 61.0948C37.1823 60.7916 36.0773 59.689 34.6961 59.0826C34.337 58.9172 34.1713 58.5864 34.3923 58.228C36.5746 58.9723 38.7569 59.6063 40.8564 60.4608C42.2376 61.0397 43.4807 61.9218 44.779 62.7211C45.1105 62.8865 45.3039 63.2449 45.7182 63.6859ZM34.0884 63.0519C35.2762 62.225 36.4917 61.2602 38.0663 61.7012C39.4751 62.0871 40.8564 62.5833 42.2376 63.0519C42.4309 63.1071 42.5691 63.3276 42.9558 63.6859C42.4586 63.7411 42.1823 63.8789 41.9337 63.7962C41.2431 63.6032 40.5525 63.2449 39.8619 63.1071C37.7901 62.6936 35.7735 62.666 33.9503 64.0167C33.8674 63.934 33.7845 63.8513 33.7017 63.7686C33.8398 63.5481 33.895 63.1898 34.0884 63.0519ZM44.6133 64.9815C45.3867 65.009 46.1878 64.9264 46.9061 66.0014C46.6851 64.3475 47.4862 63.5757 48.2873 62.7487C48.5083 63.9616 48.7293 64.9815 48.9227 65.9738C49.1713 67.2143 48.3149 68.4547 47.0718 68.5098C46.6298 68.5374 45.9392 68.3169 45.7735 67.9861C45.0276 66.663 44.0608 65.6706 42.4033 65.3123C43.1492 64.3199 43.9226 64.9815 44.6133 64.9815ZM52.9834 69.006C53.0663 69.006 53.1492 69.1989 53.3149 69.3643C53.0939 69.5022 52.9558 69.6675 52.7624 69.6951C51.9889 69.8605 46.8508 69.7502 46.3536 69.3368C46.6298 69.2541 46.9337 69.1438 47.2099 69.1162C49.116 69.0611 51.0497 69.0335 52.9834 69.006ZM49.2265 62.8314C49.8619 62.8314 50.3591 62.8314 50.884 62.8314C51.326 63.934 50.8564 64.568 50.7182 65.395C50.5801 66.2219 50.4696 67.0764 50.3315 68.0136C50.0552 67.8207 49.8895 67.7656 49.8619 67.6553C49.558 66.3597 49.2818 65.0366 49.0055 63.7135C48.9779 63.5205 49.1436 63.3827 49.2265 62.8314ZM49.0884 72.1484C50.0276 71.7901 50.9392 71.4593 52.0442 71.8176C51.9061 72.0657 51.8232 72.3689 51.6851 72.3689C50.8011 72.5343 49.9448 72.6721 49.0884 72.1484ZM50.4144 75.8421C49.8066 75.1806 50.0276 74.4914 50.221 73.8023C50.7735 74.4363 50.5801 75.153 50.4144 75.8421ZM47.3204 70.7702C47.4862 70.6599 47.6519 70.4945 47.7901 70.4945C49.3646 70.6048 50.9669 69.8881 52.5138 70.715C50.8011 71.1285 49.116 71.2112 47.3204 70.7702ZM44.6133 68.5925C45.1657 69.1714 45.7182 69.8054 46.1326 70.4945C46.5193 71.1285 46.7403 71.8452 47.6519 71.8728C47.8453 71.8728 48.0663 72.0933 48.232 72.2311C48.6188 72.5894 48.9503 72.9754 49.5028 73.4715C49.5028 74.1882 49.5028 75.2081 49.5028 76.0351C48.674 76.0351 48.1492 76.0351 47.4586 76.0351C46.6022 73.2786 45.7735 70.4669 43.3978 68.5098C43.9503 68.0412 44.3646 68.3444 44.6133 68.5925ZM53.2873 75.0979C53.0939 76.228 52.6796 76.421 51.2431 76.0626C51.1878 75.1806 51.1326 74.2709 51.0497 73.3061C51.6022 73.1132 51.9613 72.9754 52.3481 72.8651C53.4807 70.9631 54.558 69.006 57.2099 68.3169C56.9613 68.813 56.7956 69.1438 56.6298 69.4746C55.7459 69.7227 55.221 70.4118 54.779 71.1561C54.0331 72.3689 53.5083 73.6645 53.2873 75.0979ZM56.2155 67.3521C56.9061 65.9738 57.3204 65.8636 58.5635 66.663C57.9558 67.545 57.0718 67.2969 56.2155 67.3521ZM57.7072 65.0917C56.4088 65.4225 55.7182 66.4976 54.8895 67.3521C54.3923 67.8482 53.8674 68.0688 53.2044 68.1239C51.8785 68.2342 51.0221 67.3521 51.1326 66.029C51.1602 65.8084 51.1878 65.5603 51.2707 65.3674C51.6575 64.4026 51.9613 63.4103 51.5193 62.3352C51.6575 62.2801 51.768 62.225 51.9061 62.1698C52.1547 62.4455 52.4033 62.7487 52.6519 63.0244C52.9282 63.3276 53.232 63.6032 53.6188 63.9616C53.5635 64.7885 53.4807 65.6706 53.4254 66.5527C54.2541 65.2571 55.6354 65.0642 56.8232 64.5956C57.0994 64.4853 57.4862 64.568 57.9006 64.568C57.7624 64.8712 57.7624 65.0917 57.7072 65.0917ZM67.3204 38.519C67.4033 39.0703 67.7901 39.594 68.0939 40.2832C68.1492 40.8069 68.2597 41.5236 68.3702 42.3781C67.8177 43.1224 66.9889 43.5634 65.9668 43.8115C65 44.032 64.0608 44.4455 63.2044 44.9692C62.4309 45.4378 62.0442 46.2097 62.3481 47.2296C62.4586 47.6155 62.4033 48.1668 62.2099 48.5251C61.5193 49.9034 61.4088 51.3368 61.5746 52.7977C61.6022 52.9907 61.6298 53.1561 61.6298 53.349C61.8785 56.0228 60.3039 57.1806 57.7348 56.1331C57.2652 55.1132 57.9006 54.4792 58.7293 53.8728C57.6519 53.7901 57.1547 54.0106 56.8232 54.6997C56.5193 55.3337 56.768 55.8574 57.1823 56.326C58.5359 57.8973 60.6354 57.2357 61.6851 56.1331C62.0994 55.7196 62.4033 55.1959 62.7348 54.7548C62.9558 54.7548 63.1215 54.7273 63.232 54.7824C63.9779 55.1407 64.6961 55.7472 65.5525 55.4715C67.0718 55.0029 68.7017 54.6721 69.8343 53.4041C70.9392 52.1913 70.8287 50.4271 69.558 49.545C68.7569 48.9937 67.9834 49.1591 67.3481 50.1515C67.8729 50.2342 68.3425 50.3169 68.8398 50.3996C69.4199 50.813 69.4199 51.3643 69.0884 51.9432C68.7569 52.5221 67.7348 52.9907 67.0442 52.7701C65.4696 52.3015 64.1713 51.447 64.5304 49.1316C64.9171 46.6507 66.8508 45.8237 68.4807 45.8513C71.9613 45.8789 74.2265 48.7732 73.5635 52.1637C72.9282 55.4991 70.1381 57.3184 67.0166 57.5389C66.7956 57.3184 66.547 57.0979 66.2707 56.8498C66.1326 56.8498 65.9669 56.8222 65.8564 56.8773C63.7293 57.7043 61.5746 58.5037 59.4475 59.3582C58.7569 59.6339 58.0939 59.9371 57.4862 60.3781C56.0497 61.4256 54.5856 61.2878 53.0387 60.764C52.6243 59.8268 52.6519 59.055 53.232 58.1729C55.8564 54.1484 58.3978 50.0412 60.9945 45.9891C62.6243 43.4531 64.3094 40.9447 65.9668 38.4087C66.3812 37.7747 66.768 37.1132 67.1823 36.4792C67.3204 36.5343 67.4309 36.5619 67.5691 36.617C67.4862 37.3061 67.2376 37.9401 67.3204 38.519ZM57.0166 63.1898C56.547 63.5757 56.0773 63.9064 55.1381 63.6584C55.9669 62.225 57.2652 61.591 58.4254 60.8192C59.3923 60.1576 63.9227 58.7793 64.9724 58.862C64.6961 59.2204 64.5304 59.5512 64.2541 59.689C63.7017 59.9922 63.0939 60.2954 62.4862 60.4332C60.4144 60.8743 58.6464 61.9218 57.0166 63.1898ZM60.663 61.9769C62.0442 61.3705 63.5083 61.1775 64.9724 61.4807C65.9669 61.6737 66.9061 63.0795 66.9889 64.4577C66.6575 64.2097 66.3812 64.0994 66.2431 63.8789C65.1934 62.2801 63.7017 62.0596 62.0166 62.4179C61.4641 62.5282 60.884 62.666 60.3315 62.7763C60.2762 62.6936 60.221 62.6384 60.1657 62.5558C60.3315 62.3628 60.4696 62.0596 60.663 61.9769ZM68.7569 40.9172C69.5304 40.7518 69.8619 41.1652 70.1105 41.7992C69.0331 42.0473 69.0055 42.0198 68.7569 40.9172ZM69.3094 36.6446C68.5912 35.3766 68.674 35.1561 69.8066 34.8528C70.0552 35.5144 69.5304 35.8728 69.3094 36.6446ZM69.116 39.594C68.0387 39.2357 67.8453 38.712 68.4807 37.5818C68.8398 38.3536 69.4475 38.7946 69.116 39.594ZM68.1492 32.5374C66.7127 34.7701 65.3039 37.0305 63.895 39.2908C61.2431 43.4807 58.5912 47.6706 55.9669 51.8605C54.1713 54.7273 52.4033 57.6216 50.6077 60.5159C50.3867 60.8467 50.1105 61.1499 49.6961 61.6461C49.2818 61.2878 48.9779 61.0948 48.7569 60.8192C45.8564 57.0703 43.011 53.3214 40.1105 49.5726C37.2099 45.7962 34.2541 42.0198 31.3536 38.2433C29.3646 35.6522 27.3757 33.006 25.3591 30.3597C24.4751 29.202 23.5912 28.0167 22.6519 26.8865C22.2652 26.4179 21.8508 25.8666 20.9116 25.9493C20.8011 26.8038 20.6906 27.6308 20.6077 28.4853C20.5801 28.8161 20.6077 29.1193 20.6077 29.4501C20.5525 31.545 19.6685 32.372 17.2376 32.4271C16.7127 29.4777 17.2376 26.5282 17.3757 23.5787C17.5138 20.6293 17.3481 17.6247 18.0663 14.5098C18.3978 14.7303 18.7017 14.8406 18.8674 15.0335C22.1271 19.3061 25.3591 23.5787 28.6188 27.8513C29.9448 29.6155 31.2983 31.3521 32.6243 33.1162C36.5193 38.2709 40.4144 43.4531 44.3094 48.6078C45.8011 50.5925 47.2928 52.5496 48.8122 54.5343C49.0055 54.7824 49.2265 55.0029 49.4199 55.2234C50.0829 55.2234 50.221 54.7273 50.442 54.3414C52.1547 51.64 53.8398 48.8835 55.5801 46.2097C57.9834 42.4608 60.4696 38.7671 62.8729 35.0182C65.5249 30.8835 68.0663 26.6936 70.6906 22.5312C72.4862 19.6645 74.3094 16.7977 76.1602 13.9309C76.3812 13.6002 76.7127 13.2418 77.0442 13.1316C78.3425 12.7732 79.6961 12.5251 81.0221 12.2219C81.3812 13.7104 82.3204 30.3873 82.0718 31.5175C80.7459 31.1316 79.4475 30.7181 78.3978 29.8084C78.0387 29.5052 77.8729 28.8437 77.8177 28.3199C77.5967 26.032 77.4309 23.7441 77.2928 21.4562C77.2652 20.8773 77.2099 20.3536 76.4641 19.9953C76.105 20.326 75.663 20.6568 75.3867 21.0979C72.9834 24.957 70.5525 28.7334 68.1492 32.5374ZM26.326 36.8651C26.1878 35.8176 26.1878 35.8176 27.3757 36.1484C27.0442 36.3689 26.7127 36.5894 26.326 36.8651ZM26.8785 39.153C25.9116 38.7947 25.9116 38.7947 26.3536 37.9126C26.8508 38.1331 26.8508 38.5741 26.8785 39.153ZM18.5083 80.666C18.7569 82.7885 19.1713 84.8283 20.4972 86.5649C20.8287 86.9784 21.0221 87.5022 21.4365 88.2189C20.8564 88.1637 20.4972 88.2189 20.221 88.081C18.2873 87.0611 16.6575 85.6277 15.442 83.8084C15.1934 83.4225 15.1657 82.8437 15.1657 82.3475C15.2486 78.9019 15.3039 75.4562 15.442 72.0381C15.663 66.2219 15.9116 60.4057 16.1878 54.5894C16.2983 52.3842 16.4365 50.2066 16.547 48.0014C16.7127 44.3352 16.8232 40.6691 16.989 37.0029C16.989 36.6997 17.0718 36.3965 17.1271 36.0933C18.0939 36.176 18.9779 36.2587 20.0552 36.3414C20.0552 37.3337 20.0829 38.3536 20.0552 39.4011C19.779 46.3199 19.4751 53.2388 19.1713 60.1576C18.9779 64.1821 18.7017 68.2066 18.5912 72.2587C18.5083 75.0703 18.2044 77.8544 18.5083 80.666ZM14.4751 80.8314C14.5304 83.5604 13.5083 85.7104 11.7403 87.64C11.3812 88.0259 10.9116 88.274 10.2486 88.7977C10.3039 88.1913 10.2762 87.9156 10.3867 87.7227C11.1326 86.2066 11.4365 84.6078 11.4917 82.9264C11.6298 79.8666 11.768 76.7793 11.9061 73.7196C12.3204 63.9891 12.7072 54.2862 13.0939 44.5558C13.1768 42.2127 13.232 39.8973 13.3149 37.5542C13.3425 37.0305 13.453 36.3965 13.5635 35.8452C14.5304 35.8452 15.2762 35.8452 16.2155 35.8452C16.2155 36.3965 16.2155 36.81 16.2155 37.251C16.0221 42.4884 15.8564 47.6982 15.6354 52.9355C15.3867 58.6139 15.0552 64.2924 14.8066 69.9983C14.6409 73.5818 14.4199 77.2204 14.4751 80.8314ZM12.2652 87.9432C13.1215 86.7579 13.9779 85.5726 14.8895 84.277C16.0221 85.5726 16.9889 86.9509 18.4807 87.7227C19.9448 88.4669 21.4917 89.1009 23.1492 89.8452C23.1215 90.2035 23.0939 90.6721 23.0663 91.3061C18.4254 91.251 14.0331 91.2234 9.64088 91.1408C9.44751 91.1408 9.25414 90.9754 8.95028 90.81C9.83425 89.5144 11.4088 89.1285 12.2652 87.9432ZM19.6685 34.8804C19.2818 35.1009 18.6188 35.1561 18.232 34.9631C17.4862 34.6048 16.8232 34.6599 16.0773 34.7977C13.8674 35.2112 11.7956 34.6875 10.0276 33.9983C9.44751 33.0887 9.06077 32.372 8.59116 31.7104C7.12707 29.643 7.20994 26.2525 8.8674 24.3781C9.17127 24.0473 11.6575 23.1377 12.1271 23.2479C12.2376 23.2755 12.2928 23.4409 12.4862 23.6614C12.0166 23.8268 11.6575 23.9371 11.2983 24.0473C9.17127 24.7089 7.92818 27.0519 8.56354 29.202C9.33702 31.8482 11.6298 33.5022 14.3923 33.6124C17.4033 33.7502 19.9724 32.7303 22.2652 30.8835C22.5414 30.6629 22.8453 30.4424 23.1492 30.2219C23.232 30.1668 23.3149 30.1392 23.4807 30.0841C24.4475 30.5527 24.9448 31.2694 24.6961 31.8482C24.3094 32.7028 23.5635 32.4547 22.5691 32.2893C22.4033 32.5098 22.2099 32.9784 21.8785 33.2541C21.1602 33.8605 20.4696 34.4394 19.6685 34.8804ZM12.3757 28.8161C12.7072 29.8084 12.4309 30.8559 12.3204 31.9309C10.6906 31.8482 9.36464 30.5803 9.17127 28.9263C9.06077 27.9064 9.1989 26.9141 9.72376 26.0044C10.2486 25.0672 11.2155 24.6813 12.3757 24.9294C12.7348 25.8666 12.7348 26.1698 12.4033 27.5481C11.9889 27.5481 11.6298 27.5481 11.2155 27.5481C11.326 28.375 12.0166 28.3475 12.3757 28.8161ZM48.2597 12.1392C49.0055 12.4976 49.0331 13.1591 49.0331 13.738C49.3923 14.0688 49.6685 14.3444 49.9448 14.5925C49.9171 15.447 49.4475 15.9432 48.7569 15.9432C47.9834 15.9432 47.3481 16.1637 46.7403 16.6323C46.5746 16.7701 46.2431 16.715 45.884 16.7426C45.4972 15.5297 45.1657 14.4822 44.8343 13.4072C44.779 13.2694 44.9171 13.0764 44.9724 12.8835C46.1326 12.6078 47.2099 12.3597 48.2597 12.1392ZM46.5193 9.27244C47.4862 9.57566 47.5967 9.71348 47.5414 10.8161C46.4641 10.6507 46.2983 10.375 46.5193 9.27244ZM51.326 22.9723C51.3536 23.0825 51.2155 23.2204 51.0221 23.689C50.7735 23.1652 50.5801 22.9172 50.5525 22.6415C50.4144 20.6293 49.5856 18.6446 50.0829 16.4394C50.3867 16.5772 50.5801 16.6323 50.7459 16.7426C50.8011 16.7701 50.8287 16.908 50.8287 16.9907C50.4972 19.0305 50.8564 21.0152 51.326 22.9723ZM52.1823 11.6706C52.9282 11.2571 53.453 11.836 53.895 12.1116C54.4751 12.1116 54.9724 12.1116 55.5525 12.1116C56.2431 13.4899 56.2155 13.5175 54.8619 14.3169C54.9724 14.6476 55.1105 15.006 55.221 15.2816C54.558 16.2188 54.2818 16.3291 53.3978 16.0535C52.7072 15.8329 52.0166 15.6124 51.1602 15.3643C51.1326 15.1438 50.9945 14.7303 51.0773 14.4547C51.4088 13.5175 51.7956 12.6078 52.1823 11.6706ZM52.1271 10.4302C52.3757 9.63079 52.5691 8.99679 52.8177 8.16984C53.895 8.85897 53.7569 9.63079 53.5359 10.5404C53.0939 10.5129 52.6796 10.4853 52.1271 10.4302ZM66.7403 13.2694C67.8729 13.0213 68.0387 13.7656 68.3978 14.1239C68.8122 14.5374 69.1436 15.0335 69.4475 15.5297C69.6961 15.9432 69.5304 16.3015 68.895 16.6323C67.9282 15.6951 67.7072 14.372 66.7403 13.2694ZM67.3757 17.1836C67.3481 17.4041 67.1271 17.6247 66.9613 17.8452C66.8508 17.7901 66.6298 17.7349 66.6298 17.6522C66.6298 17.2388 66.6298 16.7977 66.6298 16.3842C67.2099 16.3842 67.4309 16.7701 67.3757 17.1836ZM66.2155 11.0917C65.3315 10.375 64.0884 10.4026 62.9282 10.4302C63.7017 10.7885 64.5028 11.1193 65.221 11.5328C65.9945 12.0014 66.1602 13.0764 65.6077 13.7931C65.5249 13.9309 65.3039 13.9585 65.0552 14.0688C64.8895 13.7104 64.7514 13.3796 64.6133 13.0489C63.9503 11.7533 62.8729 11.0366 61.4365 10.9539C60.3315 10.8712 59.2541 10.9539 58.2873 11.6706C57.8729 12.0014 57.3204 12.1668 56.8232 12.4149C56.3536 11.7809 56.7403 11.395 57.0994 11.0917C58.0387 10.2372 59.1989 9.82375 60.442 9.57566C62.5691 9.13462 64.6133 9.52053 66.6575 10.2097C67.5967 10.5404 68.6188 10.568 69.6133 10.7058C69.9171 10.761 70.221 10.7058 70.8564 10.7058C70.442 11.0917 70.2486 11.4225 70.0276 11.4501C68.7569 11.5879 67.4586 12.1392 66.2155 11.0917ZM56.7956 14.179C57.9834 12.6629 59.4475 11.836 61.4365 12.0014C62.8177 12.1392 63.5912 12.911 63.9779 14.179C64.0608 14.4271 64.0884 14.7028 64.1713 15.0887C64.6409 15.1162 65.1381 15.1714 65.6077 15.1989C65.5249 16.8804 64.558 17.8452 63.0663 17.6798C62.5414 17.6247 62.0442 17.4593 61.8785 16.908C61.7403 16.4394 61.8508 15.9983 62.2652 15.6675C62.4309 15.5297 62.5691 15.3368 62.6796 15.1989C62.2099 13.8207 61.4088 13.6002 60.4972 14.5925C60.221 14.8957 59.9447 15.1989 59.6685 15.5022C59.558 15.64 59.4475 15.8054 59.3646 15.9708C59.0884 16.6875 60.0276 19.1407 60.7182 19.4715C61.7127 19.9401 62.6796 20.4639 63.8674 19.9677C64.3094 19.7747 64.8619 19.885 65.2762 19.885C65.8564 19.4715 66.4088 19.1407 66.9061 18.7548C67.3757 18.3689 67.7901 17.9279 68.3702 17.5971C68.2873 18.9754 67.2652 19.9126 66.7127 21.0427C66.1326 22.2832 65.3591 23.4409 64.6409 24.5986C63.9503 25.7288 63.2597 26.859 62.5414 27.9891C61.8232 29.1744 61.105 30.3322 60.3867 31.5175C59.6961 32.6476 59.0055 33.7778 58.2597 34.9907C57.4309 34.7977 56.5746 34.5772 55.5801 34.3291C55.442 34.0259 55.1657 33.6124 55.1381 33.1989C55.0552 32.0688 54.5028 31.545 53.3978 31.4899C53.232 31.4899 53.0387 31.4072 52.7624 31.3521C52.7624 30.7732 52.6519 30.1943 52.7901 29.643C53.011 28.7058 53.2873 27.7686 53.674 26.9141C54.116 25.9218 54.4751 25.8391 55.8287 26.2525C55.7182 27.0244 55.6354 27.8237 55.4696 28.6231C55.1934 29.836 55.7459 30.6629 56.6022 31.3521C57.0718 31.738 57.5967 31.7931 58.1492 31.4899C58.674 31.1867 58.7845 30.8835 58.7293 29.8911C58.232 30.0565 57.9282 31.104 57.0994 30.1668C57.1547 29.8084 57.1547 29.3123 57.3204 28.8712C57.7072 27.6584 58.2044 26.4455 58.5359 25.2051C58.9503 23.7441 59.2265 22.2832 59.5304 20.7946C59.5856 20.4914 59.5304 20.1331 59.4199 19.8574C58.895 18.6446 58.4807 17.349 57.4586 16.4394C57.1547 16.1637 56.9061 15.8329 56.6851 15.4746C56.4365 15.0335 56.4641 14.6201 56.7956 14.179ZM62.1271 18.6446C61.6851 19.1132 61.326 19.1683 60.9392 18.5619C61.3812 18.2035 61.7403 18.176 62.1271 18.6446ZM60.5525 16.2464C60.7735 16.5772 60.9945 16.908 61.2983 17.349C60.2486 17.2663 60.2486 17.2663 60.5525 16.2464ZM44.4751 36.1208C44.2541 36.0933 44.0331 35.9554 43.5359 35.7625C44.8619 35.2663 45.9392 35.4868 46.9889 35.4593C48.0387 35.4317 49.116 35.4593 50.1657 35.4593C51.2707 35.4593 52.3757 35.3214 53.4807 35.4041C54.5028 35.4593 55.5525 35.2663 56.5193 35.6522C55.663 36.1208 46.8785 36.3689 44.4751 36.1208ZM56.105 36.8651C56.0773 37.9953 55.9945 38.0504 54.8066 37.9953C54.5856 36.7548 54.8343 36.5619 56.105 36.8651ZM49.5304 44.0871C49.5304 42.9845 49.5304 41.689 49.5304 40.3107C50.0829 40.2832 50.6354 40.1729 51.2431 40.1453C51.3812 41.5512 51.4917 42.7089 51.6022 44.0871C50.884 44.0871 50.3591 44.0871 49.5304 44.0871ZM51.2707 45.3276C50.8011 45.9891 50.3591 45.7686 49.6961 45.5481C50.3039 44.9692 50.7459 45.1622 51.2707 45.3276ZM46.2707 39.4286C46.0773 39.4011 45.9116 39.2908 45.4696 39.0979C45.884 38.9325 46.0773 38.7946 46.2707 38.7946C48.9779 38.7946 51.7127 38.6568 54.4199 38.9876C53.5912 39.4562 48.7293 39.6492 46.2707 39.4286ZM48.4254 43.2878C47.5967 43.0397 46.6851 41.9095 46.0773 40.2556C46.8785 40.2556 47.5414 40.2556 48.1492 40.2556C48.7293 41.6063 48.7569 42.0473 48.4254 43.2878ZM44.4199 36.7824C45.6077 36.4516 45.8564 36.6446 45.884 38.078C44.6961 38.2709 44.5304 38.1331 44.4199 36.7824ZM46.8508 36.7273C48.1215 36.617 48.232 36.7548 47.8453 37.9677C46.9613 37.8574 46.9613 37.8574 46.8508 36.7273ZM49.0055 36.7548C49.1989 36.6997 49.337 36.6446 49.4475 36.617C49.5856 36.617 49.7238 36.6446 50 36.6997C50.0552 37.1407 50.1105 37.5818 50.1657 38.0228C48.9779 38.2709 48.895 38.1882 49.0055 36.7548ZM51.1878 36.6997C51.3812 36.6997 51.6022 36.6721 51.989 36.6446C51.9337 37.2234 51.9061 37.7196 51.8508 38.4087C50.9116 37.7747 50.9116 37.7747 51.1878 36.6997ZM52.7348 38.2985C52.7901 37.692 52.8453 37.1959 52.9006 36.6446C53.3149 36.6446 53.5912 36.6446 54.0331 36.6446C53.9503 37.1959 53.895 37.692 53.8398 38.1882C53.5083 38.2433 53.232 38.2433 52.7348 38.2985ZM52.2652 40.2832C52.9558 40.2556 53.7017 40.228 54.6409 40.1729C54.116 41.5512 53.3978 42.4884 52.6243 43.5083C52.0718 42.4057 52.0166 41.9922 52.2652 40.2832ZM43.0663 25.398C43.1215 25.9493 43.232 26.5006 43.2597 27.0244C43.2873 27.4103 43.2597 27.7962 43.2597 28.1545C43.0939 28.1821 42.9282 28.2097 42.7624 28.2097C42.3481 26.3904 41.4365 24.6813 41.4917 22.7242C41.5193 22.1453 41.6851 21.5389 41.8785 20.9876C42.1547 20.1331 42.7624 19.6094 43.6188 19.3613C44.4751 19.1132 45.4696 19.4991 45.7735 20.1607C46.1878 21.0979 45.9116 21.9524 44.9724 22.4761C44.8066 22.5588 44.6409 22.6139 44.4751 22.7242C43.5359 23.3858 42.9558 24.2403 43.0663 25.398ZM44.6409 24.7916C48.0939 24.6262 51.547 24.3505 55.0276 24.4884C55.221 24.4884 55.3867 24.6538 55.7459 24.7916C55.442 24.9845 55.3039 25.1224 55.1657 25.1224C51.768 25.2051 48.3978 25.2602 45 25.3153C44.8619 25.3153 44.7238 25.1499 44.558 25.0672C44.6133 24.9845 44.6409 24.8743 44.6409 24.7916ZM49.0608 18.5619C48.8398 18.1484 48.6188 17.7625 48.3702 17.349C49.1436 16.908 49.3646 17.2663 49.558 17.6247C49.7514 18.0657 49.5856 18.3138 49.0608 18.5619ZM49.2818 23.6614C49.0608 22.4761 49.3094 21.4838 49.5304 20.2433C50.3039 21.4286 50.1934 23.055 49.2818 23.6614ZM55.9116 23.5512C55.4144 23.0826 54.9171 22.6139 54.4475 22.1178C53.7293 21.346 53.6464 20.5466 54.1713 19.885C54.5856 19.3337 55.663 19.1407 56.4365 19.4715C57.7624 20.0504 58.7845 22.2005 58.3978 23.6339C58.3702 23.7717 58.3149 23.8819 58.2597 24.0198C57.6243 25.7839 57.0166 27.5205 56.3812 29.2847C56.2707 29.2847 56.1602 29.2847 56.0497 29.2847C56.0773 28.8988 56.0497 28.5129 56.105 28.1545C56.2431 27.5205 56.4365 26.9141 56.6298 26.3077C56.9613 25.2326 56.7127 24.323 55.9116 23.5512ZM52.3481 26.3628C52.0442 28.0718 51.768 29.5879 51.4917 31.104C51.326 31.104 51.1878 31.0764 51.0221 31.0764C50.9669 29.5328 50.884 27.9891 50.8287 26.2801C51.4088 26.3077 51.8508 26.3352 52.3481 26.3628ZM49.4475 26.1423C50.0829 28.1545 50.0829 30.5527 49.3646 31.4072C48.8674 29.643 48.3978 28.0167 47.9006 26.3352C48.3702 25.8666 48.9226 26.1974 49.4475 26.1423ZM53.5083 32.4547C53.5635 32.4547 53.6188 32.5925 53.7017 32.6752C53.6464 32.7579 53.5635 32.9784 53.5083 32.9784C51.4088 33.006 49.337 32.9784 47.0718 32.9784C47.3204 32.7855 47.4586 32.5374 47.5967 32.5374C49.5856 32.5098 51.547 32.4822 53.5083 32.4547ZM47.5691 33.64C49.4751 33.6124 51.4088 33.5573 53.3149 33.5573C53.8398 33.5573 54.4475 33.5022 54.4199 34.4394C52.9834 34.7701 47.6243 34.8253 46.2707 34.4945C46.4641 34.2188 46.5746 33.9156 46.768 33.7778C46.9889 33.64 47.2928 33.64 47.5691 33.64ZM57.9282 18.176C58.2597 18.81 58.7293 19.4715 58.3425 20.5466C58.0111 19.9953 57.7901 19.6094 57.5414 19.251C56.6851 18.0106 55.3591 17.7625 53.895 18.5619C52.7624 19.1959 52.4033 20.4639 53.0387 21.7594C53.2597 22.2005 53.5635 22.6139 53.8122 23.055C53.9227 23.2755 54.0055 23.5236 54.0884 23.7717C52.8453 24.0198 52.2099 23.7165 52.0166 22.6139C51.8232 21.6767 51.6575 20.7395 51.1602 19.885C51.105 19.8023 51.105 19.7196 51.0773 19.6094C50.9669 18.9754 51.5746 17.1009 52.1823 16.3567C52.3481 16.7701 52.5138 17.1009 52.6796 17.4868C53.4254 17.8452 54.0608 17.5144 54.7238 17.1561C56.1326 16.4669 57.2099 16.7701 57.9282 18.176ZM45.6077 17.8176C48.7569 17.983 49.3094 18.6997 48.011 21.1806C48.2597 22.0075 48.674 22.8896 47.6519 23.496C46.9613 23.8819 46.2707 24.2678 45.4144 23.496C46.7403 22.2556 47.8453 20.9049 46.3536 19.1683C45.3315 17.983 43.6188 18.0933 41.9061 19.251C41.6851 18.3965 42.0718 17.5144 42.9006 17.0458C44.0884 16.3567 44.8895 17.0734 45.6077 17.8176ZM42.0994 16.7977C41.4917 17.2388 41.0221 17.8176 41.0773 18.6446C41.0773 18.7824 41.0773 18.9202 41.0221 19.058C39.9447 21.2908 40.7182 23.4409 41.2707 25.6185C41.5746 26.7763 41.9061 27.9064 42.2099 29.0642C42.2652 29.3398 42.3204 29.6155 42.2928 29.8911C42.2099 30.8283 41.6298 31.104 40.7735 30.5803C40.663 30.4976 40.5801 30.4149 40.442 30.3046C40.3591 31.1591 40.5525 31.5726 41.1326 31.8207C41.7956 32.0963 42.7901 31.8207 43.2044 31.1316C43.7569 30.1943 44.2265 29.1744 44.1436 28.0167C44.0884 27.3551 44.0608 26.666 44.0055 25.8666C45.3591 25.9769 46.4641 26.225 47.0994 27.4378C47.7624 28.6783 47.9834 30.029 47.7901 31.4623C47.4586 31.545 47.1547 31.6277 46.8508 31.7104C45.9392 31.9585 45.7459 32.2066 45.663 33.1162C45.5801 34.1086 45.5525 34.1362 44.6409 34.4394C43.8398 34.715 43.0663 35.0182 42.0718 35.4041C41.2431 34.3567 40.2486 33.1714 39.3094 31.9585C36.8785 28.7334 34.5028 25.4807 32.0718 22.2556C31.4088 21.3735 30.9392 20.5466 31.326 19.3613C31.547 18.6997 31.4917 17.9554 31.5746 17.2663C31.6851 17.2663 31.7956 17.2663 31.9061 17.2663C32.1823 17.6798 32.4586 18.0933 32.7072 18.5343C33.2873 19.5267 33.9503 20.326 35.1934 20.519C35.7182 20.6017 36.1878 20.96 36.7127 21.2357C37.4862 20.96 38.2597 20.6568 39.0331 20.3812C39.0884 20.3536 39.116 20.3536 39.1436 20.326C40.442 19.4991 40.7182 16.3842 39.558 15.3919C39.2541 15.1162 38.895 14.8957 38.5359 14.7028C37.3204 14.0688 36.6575 14.3995 36.2707 15.9156C36.6022 15.9983 36.9337 16.1086 37.2928 16.1913C37.8453 16.3291 38.1768 16.715 38.2044 17.2663C38.232 17.8452 37.8453 18.176 37.3757 18.4241C37.2099 18.5067 37.0166 18.5619 36.8508 18.5619C35.9116 18.6721 35.1105 18.3138 34.558 17.542C34.0884 16.8804 33.5912 16.1361 34.2818 15.2265C34.4199 15.1989 34.5856 15.1162 34.7514 15.1162C35.5249 15.1714 35.8564 14.7579 35.884 14.0688C35.9116 12.6905 36.7403 12.1943 37.9558 11.9463C40.2762 11.4777 42.1271 12.2219 43.6188 13.9585C43.9503 14.3444 44.0884 14.8957 44.3094 15.3919C43.453 15.8881 42.7624 16.3015 42.0994 16.7977ZM32.4586 14.9784C32.1547 14.3995 32.3481 14.0963 32.9558 13.8758C33.2044 14.4547 33.2597 14.8682 32.4586 14.9784ZM32.6796 17.3766C32.6519 17.0458 32.5691 16.8253 32.5967 16.6323C32.6243 16.4945 32.7901 16.3567 33.011 16.081C33.4807 16.7977 33.4254 17.1285 32.6796 17.3766ZM33.7293 19.1683C33.8398 18.7273 33.9227 18.3965 34.0055 18.0381C34.116 18.0381 34.1989 18.0106 34.3094 18.0106C34.4751 18.3689 34.6409 18.7273 34.9448 19.3613C34.337 19.2786 34.0884 19.2234 33.7293 19.1683ZM35.6906 19.3888C36.4088 19.1959 36.768 19.444 36.989 20.2709C36.1602 20.4087 35.8011 20.1331 35.6906 19.3888ZM39.9171 17.3766C39.8895 17.6522 39.9448 17.983 39.8066 18.0933C39.4475 18.4241 38.9779 18.5619 38.453 18.2035C38.674 17.5144 39.1989 17.4041 39.9171 17.3766ZM38.7017 16.715C38.7845 16.3842 38.8398 16.0535 38.9503 15.5297C39.5856 16.1362 39.5856 16.4945 39.116 16.7977C38.9779 16.7701 38.8398 16.7426 38.7017 16.715ZM38.6464 19.0305C38.8122 19.1132 38.8398 19.444 38.9779 19.7196C38.232 19.8574 37.7348 19.8299 37.4033 19.1407C37.8177 18.7273 38.2597 18.7824 38.6464 19.0305ZM43.895 12.7181C43.3978 12.4424 42.9006 12.1943 42.4309 11.8636C40.8011 10.761 37.5138 10.375 35.8564 12.029C35.3591 12.5251 34.9724 13.1591 34.5304 13.7104C33.232 12.4149 33.5359 11.7257 35.8564 10.6783C35 10.4853 34.3094 10.5404 33.5635 11.1744C32.7348 11.8636 31.9613 11.9187 31.0221 11.4501C30.6077 11.2296 30.1105 11.1193 29.4475 10.8988C29.8066 10.6783 29.9171 10.5129 30.0829 10.4853C31.4917 10.2372 32.9006 10.127 34.2818 9.76861C36.768 9.13462 39.1989 9.16218 41.5746 10.2372C42.3757 10.5956 43.0939 11.1193 43.7845 11.6155C44.0055 11.7809 44.0608 12.1392 44.1989 12.3873C44.0884 12.4976 44.0055 12.6078 43.895 12.7181ZM31.4641 13.738C31.1602 15.4195 30.884 16.9907 30.5525 18.5619C30.5249 18.7273 30.2762 18.8651 30.1105 19.058C29.8066 18.3689 29.9171 16.9355 30.3867 15.1989C30.5525 14.6476 30.6077 14.0136 31.4641 13.738ZM34.9448 27.6859C36.7956 30.2495 38.7017 32.7855 40.5801 35.3214C42.3757 37.7472 44.1989 40.1729 46.0221 42.5986C47.3204 44.3352 48.6464 46.0167 49.9724 47.7257C50.1105 47.8911 50.3039 48.029 50.6354 48.277C50.9945 47.9187 51.4088 47.643 51.6298 47.2571C55.7182 40.8896 59.8066 34.4945 63.8398 28.0994C65.1934 25.9769 66.4088 23.7441 67.7072 21.594C69.9724 17.8176 72.2928 14.0688 74.558 10.2924C75.1934 9.21731 76.0773 8.61088 77.3481 8.61088C81.1326 8.58332 84.8895 8.52819 88.674 8.50062C89.3646 8.50062 90.0552 8.66601 90.7182 8.77627C90.884 8.80384 91.0497 9.02436 91.326 9.24488C91.0221 9.41027 90.8564 9.54809 90.663 9.57566C88.3978 9.98914 86.1326 10.2924 83.895 10.7885C81.8232 11.2296 79.8066 11.8636 77.7624 12.3597C76.7127 12.6078 75.9945 13.1591 75.4144 14.0963C72.6519 18.6446 69.8619 23.1652 67.0166 27.6859C64.5856 31.5726 62.0442 35.4041 59.5856 39.2633C57.5691 42.3781 55.5801 45.5205 53.5912 48.6629C52.4862 50.3995 51.3812 52.1362 50.2486 53.8728C50.1381 54.0381 49.9171 54.176 49.6409 54.4516C48.9503 53.6522 48.2597 52.9631 47.6519 52.1637C45.1105 48.8559 42.5967 45.5205 40.0829 42.1852C36.4088 37.3061 32.7901 32.3995 29.116 27.493C27.0166 24.7089 24.8895 21.9524 22.7901 19.1683C21.9061 18.0106 21.0221 16.8253 20.1657 15.64C18.6188 13.4623 16.4917 12.2219 13.9503 11.6155C12.7348 11.3398 11.5193 11.1469 10.3039 10.9263C10.1105 10.8988 9.8895 10.7885 9.69613 10.7334C9.69613 10.5956 9.69613 10.4853 9.69613 10.3475C10.3039 10.1821 10.884 9.96157 11.4917 9.90644C14.1989 9.65835 16.9061 9.4654 19.6133 9.24488C21.1602 9.10705 22.1271 9.85131 22.9558 11.1469C24.1989 13.104 25.7182 14.9233 27.0994 16.7977C27.9006 17.8728 28.674 18.9478 29.4751 20.0228C31.2983 22.5588 33.0663 25.1499 34.9448 27.6859ZM86.9337 31.4623C86.9337 31.6553 86.768 31.8758 86.6575 32.1239C85.5249 32.3996 84.3923 32.372 83.1215 31.9034C83.011 31.0764 82.8729 30.2495 82.8177 29.395C82.5967 24.957 82.4309 20.4914 82.2099 16.0535C82.1547 14.813 82.0166 13.6002 81.9337 12.3046C83.0939 11.395 84.4475 11.2571 85.9945 10.8437C86.2983 17.9279 86.6298 24.6813 86.9337 31.4623ZM13.5635 30.3597C13.7293 24.957 13.895 19.5542 14.0608 14.1515C14.0884 13.6553 14.116 13.1591 14.116 12.6354C15.4144 12.3873 16.2707 13.2143 17.2099 13.4623C16.8785 19.885 16.547 26.1698 16.2431 32.4271C15.3591 32.813 14.5856 32.9784 13.7293 32.6476C13.3978 31.9034 13.5359 31.104 13.5635 30.3597ZM21.6022 27.6032C22.6243 27.8237 22.7348 28.4853 23.0663 29.0917C22.7072 29.4777 22.3481 29.8636 21.9337 30.3046C20.9392 29.3674 21.9889 28.5404 21.6022 27.6032ZM76.326 27.0519C75.1657 26.5006 74.9724 25.6185 74.8066 24.764C74.6685 24.1576 75.221 23.4685 75.9668 23.1101C76.3812 24.3505 76.2155 25.6185 76.326 27.0519ZM89.558 26.225C89.2541 26.5282 89.0331 26.7487 88.8398 26.9692C87.6243 26.7211 87.4033 25.9493 87.9834 23.9371C89.558 23.6614 90.3867 24.1025 90.884 25.4531C91.6298 27.4103 91.0773 29.1469 89.7514 30.6629C89.4199 31.0489 88.8674 31.2418 88.3149 31.6002C87.9282 30.3597 87.8453 29.3123 88.0663 28.2372C88.674 27.7135 89.779 27.6032 89.558 26.225ZM92.0442 30.8835C92.3204 30.1668 92.5967 29.4225 92.8729 28.7058C93.8398 26.225 93.2597 23.8544 91.2431 22.1178C89.558 20.6844 88.7017 18.9202 88.8674 16.6875C88.9503 15.5848 89.6133 14.8682 90.5801 14.9784C90.9392 15.006 91.3536 15.3092 91.547 15.5848C91.8232 15.9708 91.5746 16.3567 91.1878 16.6323C90.9945 16.7701 90.7735 16.908 90.4972 17.1285C91.6851 17.4593 91.8508 17.3214 92.4586 15.8605C91.6851 14.3444 90.7182 13.8207 89.558 14.4547C88.7569 14.8682 88.1768 15.5022 88.1215 16.4945C88.0387 17.8176 88.1768 19.058 88.8674 20.2158C89.1436 20.6844 89.3646 21.153 89.7514 21.8697C88.9226 21.8146 88.3149 21.787 87.5691 21.7319C87.4586 20.6844 87.3204 19.7472 87.2928 18.81C87.2376 16.8253 87.2376 14.8682 87.1823 12.8835C87.1547 11.9187 87.5138 11.2847 88.453 11.009C88.7569 10.8988 89.0608 10.761 89.3646 10.7334C90.7735 10.5404 92.1823 10.375 93.5359 10.1821C94.0608 11.5603 94.2265 32.1239 93.7293 34.274C93.5083 34.0259 93.3702 33.8605 93.232 33.6675C93.011 33.3919 92.8729 32.9784 92.5967 32.813C91.768 32.2893 91.768 31.6553 92.0442 30.8835ZM93.9503 93.2357C93.9503 93.4562 93.895 93.6767 93.8398 94.0351C93.2873 94.0902 92.7624 94.1729 92.2376 94.2005C88.5635 94.228 84.8619 94.228 81.1878 94.228C75.3039 94.228 69.4199 94.228 63.5359 94.228C52.9558 94.228 42.3757 94.2556 31.768 94.228C25.3315 94.2005 18.895 94.0902 12.4309 94.0351C10.8287 94.0075 9.19889 94.0351 7.59668 94.0351C7.18232 94.0351 6.79558 94.0075 6.24309 93.9524C6.1326 93.4562 5.96685 93.0427 5.93923 92.6017C5.88398 91.4164 5.9116 90.2035 5.9116 89.0182C5.96685 82.0718 6.04972 75.153 6.10497 68.2066C6.16022 61.5358 6.21547 54.8927 6.24309 48.2219C6.24309 44.9141 6.16022 41.6063 6.1326 38.2985C6.1326 37.3337 6.16022 36.3689 6.16022 35.4041C6.21547 28.1545 6.27072 20.9049 6.32597 13.6277C6.35359 11.7809 6.32597 9.96157 6.35359 8.11471C6.35359 7.67367 6.40884 7.20506 6.43646 6.70889C6.8232 6.65376 7.12707 6.57106 7.43094 6.57106C10.6906 6.51593 13.9503 6.48837 17.2376 6.43324C21.4088 6.43324 25.5801 6.37811 29.779 6.32298C37.9834 6.21272 46.1602 6.04733 54.3646 5.93707C57.9006 5.88194 61.4641 5.96463 65 5.93707C68.7293 5.9095 72.4586 5.82681 76.1878 5.79924C81.2431 5.77168 86.2983 5.77168 91.3812 5.77168C92.1547 5.77168 92.9282 5.9095 93.7293 5.9922C93.9503 6.95698 94.0331 7.83906 93.7017 8.8314C93.2597 8.72114 92.8729 8.66601 92.4862 8.52819C89.8343 7.59097 87.0994 7.50828 84.337 7.53584C81.7956 7.56341 79.2818 7.61854 76.7403 7.56341C75.4696 7.53584 74.6685 7.97688 74.0608 9.05192C73.232 10.5404 72.2652 11.9463 71.3812 13.3796C71.1326 13.7656 70.884 14.1239 70.5801 14.5374C69.7238 13.9861 69.1713 13.4072 68.8674 12.3597C70.3867 11.9738 72.2099 11.9463 72.3481 9.68592C71.9613 9.71348 71.6575 9.68592 71.3536 9.74105C69.7238 10.0718 68.1492 9.87888 66.6022 9.32757C64.8066 8.69358 62.9282 8.47306 61.0221 8.50062C59.1989 8.52819 57.6796 9.3827 56.2983 10.5129C55.8011 10.9263 55.3315 11.395 54.4199 11.009C54.4475 9.93401 54.6961 8.66601 53.7017 7.75636C53.3425 7.45315 52.9006 7.23263 52.4033 6.92941C51.4365 9.10705 51.2431 11.3123 50.7182 13.4348C50.6077 13.4348 50.4972 13.4072 50.3867 13.4072C49.2541 11.4225 48.1215 9.43783 46.9889 7.45315C45.4972 8.50062 45.4972 8.55575 45.9669 11.6155C45.4696 11.9738 45.1381 11.6155 44.779 11.3123C43.2597 9.98914 41.5193 9.07949 39.5028 8.74871C37.5138 8.44549 35.5525 8.52819 33.6188 9.05192C31.7403 9.68592 29.8343 9.87888 27.9006 9.41027C27.7072 9.35514 27.4586 9.43783 27.1547 9.43783C27.3757 10.375 27.8453 11.0642 28.5912 11.4501C29.3094 11.836 30.1105 12.029 30.8564 12.3046C30.221 14.0136 29.6133 15.64 28.9779 17.3766C28.7017 17.2112 28.3978 17.1009 28.232 16.908C26.9613 15.2265 25.7182 13.5175 24.4751 11.836C23.9227 11.0917 23.3425 10.4026 22.8177 9.63079C22.2376 8.77627 21.4641 8.3628 20.4696 8.41793C16.7956 8.55575 13.0939 8.50062 9.50276 9.49296C9.06077 9.60322 8.61878 9.76861 8.23204 9.98914C7.67956 10.2924 7.62431 10.4853 7.48619 11.4501C9.0884 12.277 11.0497 11.3398 12.6243 12.2495C13.011 13.3796 13.0387 20.9049 12.6519 22.3659C12.1823 22.421 11.6575 22.4761 10.9945 22.5588C11.0773 22.1453 11.105 21.8421 11.1602 21.5665C11.4088 20.1607 11.7127 18.7824 11.8508 17.3766C11.9613 16.3015 11.0497 15.1989 10.0552 14.8682C9.06077 14.5374 7.9558 15.0887 7.81768 16.081C7.76243 16.4945 7.98343 17.0734 8.25967 17.4317C8.56354 17.8176 9.06077 17.7625 9.53039 17.4041C9.25414 16.8804 8.31492 16.6323 8.92265 15.8329C10.0552 15.5022 10.8011 15.8605 10.9945 17.0458C11.1326 17.983 11.1602 19.0029 10.9116 19.9126C10.5801 21.2357 9.97238 22.4761 8.9779 23.496C7.87293 24.6262 7.18232 26.032 6.96133 27.6308C6.74033 29.202 6.90608 30.6629 7.76243 32.0136C8.28729 32.813 8.39779 33.5022 7.62431 34.1913C6.9337 34.8253 6.96133 35.542 7.34807 36.3414C7.70718 37.0856 8.03867 37.8299 8.37017 38.5741C8.67403 39.2908 8.64641 40.0075 8.34254 40.7242C8.1768 41.1101 7.98343 41.4685 7.79006 41.9095C7.90055 42.13 7.9558 42.4332 8.12155 42.5986C9.1989 43.7288 8.92265 44.9417 8.28729 46.127C8.01105 46.6507 7.81768 47.1193 8.1768 47.643C8.81215 48.5803 8.64641 49.5726 8.31492 50.5374C8.23204 50.7855 8.12155 51.0611 8.03867 51.3092C7.90055 51.8329 7.98343 52.3291 8.48066 52.6323C8.9779 52.9355 9.44751 52.8528 9.8895 52.4945C10.3591 52.1086 10.5525 51.6124 10.3039 51.0335C10.221 50.813 10.0552 50.6476 9.91713 50.4547C9.36464 49.5726 9.36464 48.7181 10.0829 47.9187C10.5801 47.3674 10.663 46.7885 10.2762 46.1545C9.44751 44.7487 9.58564 43.4532 10.6077 42.2403C10.663 42.1852 10.663 42.0749 10.7459 41.8819C10.6354 41.689 10.5801 41.3306 10.3591 41.1377C9.50276 40.3934 9.55801 39.4562 9.69613 38.4639C9.80663 37.7472 10 37.0305 10.1105 36.3138C10.1381 36.0933 9.97238 35.8452 9.86188 35.4868C9.39227 35.7901 9.03315 36.0381 8.67403 36.2587C7.79006 35.9279 7.8453 35.349 8.0663 34.5772C9.55801 34.3567 10.7182 35.2939 12.0442 35.4593C12.4309 37.1132 12.1547 38.6844 12.0994 40.228C11.9613 43.9769 11.7403 47.7533 11.5746 51.5022C11.2155 59.2479 10.884 66.9937 10.5525 74.7671C10.4144 77.7992 10.3867 80.8314 10.1657 83.8636C10.0276 85.738 9.53039 87.5573 8.20442 89.0182C7.62431 89.6798 7.65193 90.4516 7.81768 91.2234C7.9558 91.8574 8.45304 92.078 9.06077 92.078C10.2486 92.1055 11.4365 92.1331 12.6519 92.1331C14.9448 92.1607 17.2376 92.1607 19.558 92.1607C20.7459 92.1607 21.9337 92.1331 23.1215 92.0504C23.9503 91.9953 24.2541 91.6645 24.337 90.8375C24.4199 89.983 24.337 89.2388 23.5912 88.6048C20.442 86.0136 19.5028 82.4578 19.5856 78.6262C19.7238 73.1683 20.0829 67.7104 20.3039 62.2525C20.4696 58.0351 20.5801 53.8176 20.7459 49.6002C20.9116 45.1898 21.0773 40.8069 21.2983 36.3965C21.4088 34.4118 21.8508 33.9983 23.7569 33.5297C24.4199 33.3643 25.0276 33.006 25.7182 32.7028C26.3812 33.0611 26.768 33.64 26.9337 34.274C26.3812 34.9355 25.7735 35.4593 25.4696 36.1208C25.1934 36.7548 25.2762 37.5542 25.1934 38.3536C25.7459 39.6767 26.9889 39.8421 28.232 39.9524C28.7017 39.9799 29.1713 39.9799 29.1989 39.2357C28.8398 39.1806 28.4807 39.153 28.0663 39.0979C27.8177 38.2433 26.989 37.444 27.9006 36.4241C29.1713 36.617 29.558 37.6369 29.8343 38.6293C30.3039 40.228 29.5856 41.4685 28.5635 42.5986C27.5967 42.4884 27.1823 41.8819 26.7403 41.2204C26.3536 40.6415 25.8011 40.0902 25.221 39.6767C24.5304 39.2081 23.7569 39.3735 22.9558 39.8421C23.1215 40.0902 23.2044 40.2556 23.3149 40.3383C24.9171 41.6063 25.2486 43.2878 24.9171 45.1622C24.6685 46.568 24.3923 47.9463 24.116 49.3521C23.3425 53.542 25.2762 57.4286 29.0884 59.4409C29.4199 59.6063 29.7514 59.7717 30.0552 59.9922C30.1657 60.0473 30.1934 60.2127 30.3315 60.4608C30.0276 60.6538 29.7514 60.8467 29.4475 60.9845C25.442 62.859 23.2044 66.0565 22.7348 70.3842C22.5691 72.0381 23.0387 73.7472 23.2873 75.4011C23.4254 76.2556 23.7569 77.0826 24.0055 77.9095C24.0608 78.0749 24.116 78.2679 24.1713 78.4332C24.6133 80.1423 24.2541 80.666 22.5691 80.9417C23.1768 82.3751 24.5028 82.761 25.5801 81.6859C26.1602 81.1346 26.6022 80.4179 27.1271 79.7288C28.9227 80.3628 30.7735 81.0244 33.1492 81.8513C34.7238 83.1193 35.221 84.9937 34.2265 87.4195C34.0884 87.7778 33.9779 88.1637 33.8398 88.6048C34.3646 88.7702 34.7238 88.8804 35.1934 89.0182C34.3094 90.5068 33.0663 91.1132 31.4365 91.1408C29.8895 91.1683 28.9227 90.3414 28.2597 89.1009C27.6519 87.9432 28.3702 86.2617 29.5304 85.8758C30.442 85.5726 30.9945 85.9034 31.2707 87.0336C30.9669 87.2816 30.6354 87.5297 30.2486 87.8329C31.0773 88.1913 31.5746 88.1362 31.9889 87.64C32.3757 87.1714 32.4033 86.6476 32.0994 86.0963C31.4641 84.9662 29.6685 84.6078 28.5912 85.4072C27.6243 86.1239 26.9613 87.7502 27.4033 88.8529C28.5912 91.885 31.105 93.4838 34.2818 91.885C36.8232 90.5895 38.0939 88.5221 38.0663 85.6829C38.0663 84.7732 38.0663 83.8636 38.0663 82.761C38.5359 82.4853 39.0608 82.0994 39.6409 81.9064C41.0221 81.4654 41.6851 80.2525 42.5967 79.3153C42.7348 79.1775 42.8177 78.9019 42.7901 78.6813C42.7624 78.0473 42.9558 77.5512 43.3149 77.0274C43.895 76.1453 43.9227 75.2633 43.1492 74.4087C42.8729 74.1055 42.5967 73.5818 42.6243 73.1959C42.7072 72.0381 42.1547 71.3766 41.1326 71.0182C40.9116 69.447 39.8619 68.8682 38.4807 68.6201C38.0387 68.5374 37.6243 68.3444 37.2376 68.1239C35.7182 67.1867 34.7514 67.1867 33.3149 68.2066C32.9006 68.4822 32.4586 68.7855 31.9613 68.8957C30.4144 69.2541 30.1105 70.4118 29.8343 71.6798C30.6354 72.3689 31.2431 73.0029 32.0718 73.5818C32.0718 75.4011 32.0718 77.1101 32.0718 78.764C30.4144 79.5083 30.3039 79.4532 29.5304 78.13C29.3094 77.7441 28.9779 77.3858 28.7569 76.9723C28.2044 75.9248 28.3149 75.2633 29.1989 74.4087C29.3923 74.2158 29.558 74.0228 29.7238 73.8299C29.7514 72.8651 29.0608 72.3414 28.5083 71.8452C27.5967 70.9907 27.3481 69.9432 27.3757 68.8682C27.4033 66.029 29.3646 63.8789 31.6851 63.0519C32.0166 62.9417 32.3757 62.9417 32.8177 62.9141C33.011 64.2097 32.1271 65.5328 33.2873 66.7732C33.5359 66.3873 33.7569 66.0565 33.9227 65.7257C34.4751 64.4577 35.4144 63.8237 36.768 63.6584C38.0387 63.5205 39.2541 63.7135 40.442 64.0994C40.8011 64.2097 41.105 64.5129 41.4365 64.7334C41.326 65.2571 41.2707 65.643 41.1878 66.0841C41.9613 66.7732 43.6188 65.6982 43.9779 67.4072C42.9006 67.8482 41.8785 66.7456 40.884 67.3521C42.1547 68.6201 43.5912 69.7502 44.5856 71.1561C45.5801 72.5619 46.1878 74.2434 46.3812 76.1453C45.7459 76.9999 45.0552 77.9095 44.337 78.8743C44.779 79.591 45.221 80.2801 45.6354 80.9968C46.768 82.8988 45.9116 84.8284 43.7293 85.2694C43.2597 85.3797 42.7624 85.4623 42.3757 85.545C42.1547 86.2066 42.5138 86.4547 42.8177 86.7303C43.7293 87.5849 43.8674 88.3015 43.453 89.4317C42.7901 91.1959 43.8122 92.5741 45.6906 92.4363C46.4088 92.3812 47.1547 92.4639 47.8729 92.4363C48.3149 92.4087 48.7569 92.3536 49.1989 92.2709C49.5856 92.1882 49.9724 91.9953 50.3867 91.8574C51.1602 92.1882 51.9061 92.4639 52.7901 92.1882C53.1768 92.0504 53.674 92.2709 54.116 92.3536C55.442 92.6568 56.7403 91.6369 56.7403 90.2587C56.7403 88.5221 56.9889 86.8406 58.1492 85.4348C58.232 85.3521 58.2044 85.1867 58.2597 84.8835C57.7901 84.8283 57.3757 84.7457 56.9337 84.7181C55.442 84.6078 54.8895 84.1943 54.3923 82.8437C54.1989 82.3199 54.1989 81.8513 54.4751 81.3827C54.8066 80.7763 55.1381 80.1698 55.4972 79.591C55.9669 78.8192 56.0221 78.3506 55.2762 77.7993C54.1713 76.9723 53.9779 75.9248 54.3646 74.7395C54.7514 73.4715 55.2486 72.2587 55.7735 71.0182C55.9945 70.4945 56.3536 69.9983 56.6298 69.5022C57.4309 69.006 58.232 68.5098 59.0055 67.9861C59.6961 67.4899 59.7514 66.7732 59.1436 66.1116C58.9503 65.9187 58.7569 65.7533 58.5083 65.5052C58.895 65.009 59.2265 64.5404 59.6133 64.0167C60.5249 63.7962 61.4641 63.5205 62.4033 63.3827C64.1713 63.0795 65.6906 63.6859 66.2707 65.5879C66.4088 66.029 66.5193 66.4424 66.6575 66.8835C67.9834 66.277 68.1768 65.6706 67.9558 62.9417C68.5083 62.666 68.9503 63.0244 69.337 63.2449C71.3536 64.3751 72.7624 66.0014 73.2873 68.2893C73.3425 68.5649 73.4254 68.8406 73.4254 69.0887C73.3978 70.6875 73.011 71.4041 71.2983 71.5971C71.2155 71.4868 71.0497 71.349 71.0221 71.1836C70.8564 70.1913 70.2486 69.64 69.3094 69.447C68.7293 69.3368 68.3702 68.9784 68.0111 68.5374C66.8232 67.1316 65.1934 66.9386 63.7293 68.0688C63.1768 68.4822 62.6796 68.7579 61.9613 68.6476C61.7127 68.6201 61.326 68.6476 61.1878 68.7855C60.1934 69.9156 58.5635 70.5496 58.3425 72.3138C58.2873 72.7273 58.011 73.1683 57.7624 73.4991C56.6851 74.9876 56.6298 75.8973 57.5967 77.3858C57.7072 77.5512 57.8729 77.6614 57.9282 77.8268C58.3425 79.7288 59.8343 80.7212 61.2155 81.8238C62.1823 82.5956 62.8453 83.5604 62.5138 84.9386C62.4033 85.4348 62.4309 85.931 62.4033 86.4547C62.2376 89.6522 64.3646 91.5818 67.2652 92.1607C67.8729 92.2985 68.6188 92.0228 69.2541 91.7472C70.7459 91.1408 72.5967 89.1561 72.0994 87.0611C71.8508 86.0412 71.2983 85.3245 70.4972 84.7456C69.8619 84.3046 68.7017 84.4424 68.0663 84.9937C67.4586 85.5175 67.2099 86.5374 67.5414 87.2541C67.8177 87.8329 68.2597 87.9983 69.0055 87.5573C68.7293 87.3919 68.5359 87.3092 68.3702 87.1714C68.232 87.0611 68.0939 86.9509 67.9834 86.8406C68.1492 85.6553 68.4254 85.3245 69.1989 85.297C70.0276 85.2694 70.6906 85.738 70.9392 86.5925C71.4917 88.3567 70.3315 90.2862 68.3702 90.5619C67.5967 90.6721 66.7403 90.4516 65.9668 90.2311C65.2486 90.0106 64.9448 89.3766 65.0276 88.5496C65.3591 88.4394 65.663 88.3567 65.9392 88.274C65.9392 88.1086 65.9668 87.9708 65.9668 87.8329C65.884 87.1438 65.7459 86.4823 65.7459 85.7931C65.7459 84.5803 66.0773 83.5328 67.3757 83.0366C67.5414 82.9815 67.7348 82.8712 67.8453 82.7334C68.9227 81.3827 70.5801 81.1346 72.0442 80.4731C72.5967 80.225 73.0663 80.3628 73.5635 80.7487C74.0884 81.1622 74.6961 81.5481 75.3039 81.7686C75.9669 82.0167 76.6575 81.9065 77.1547 80.9968C76.7127 80.9968 76.4365 80.9968 76.1602 80.9968C75.3039 80.9692 74.8619 80.5282 74.9447 79.7012C75 79.2602 75.1381 78.7916 75.3039 78.3781C75.663 77.496 76.0773 76.614 76.4917 75.7319C78.0387 72.3414 78.1215 68.9784 76.2983 65.6706C75.1381 63.5757 73.4254 61.9769 71.3536 60.7916C70.9668 60.5711 70.6354 60.323 70.1381 60.0198C70.4696 59.7441 70.6354 59.5787 70.8287 59.496C72.4309 58.6966 73.5912 57.4286 74.6961 56.0504C76.3536 53.983 76.6022 51.7778 76.0497 49.2969C75.7182 47.8084 75.5801 46.2924 75.3591 44.8038C75.1381 43.1499 75.1934 41.496 75.884 39.9524C75.9945 39.7043 76.0497 39.4562 76.1602 39.1254C75.1934 38.7395 74.6409 39.3184 74.0884 39.8421C73.7569 40.1729 73.5359 40.5864 73.2597 40.9447C72.7901 41.496 72.2376 41.8544 71.3536 41.8544C70.2486 40.5312 69.779 38.96 69.9724 37.1959C70.0829 36.2311 70.884 35.6522 71.6851 35.7901C72.4309 35.9003 72.7072 36.2862 72.5691 37.0305C72.5138 37.2786 72.4309 37.5542 72.3757 37.7472C72.7901 38.4087 73.2873 38.2158 73.7569 38.0228C74.3094 37.8023 74.7238 37.3337 74.6685 36.7548C74.6133 36.0933 74.3646 35.4317 74.1436 34.7977C74.0884 34.6048 73.8398 34.4669 73.674 34.3015C72.1547 32.7028 71.1602 32.6752 69.4751 34.1637C69.3094 34.3015 69.116 34.4669 68.9503 34.5772C68.895 34.6048 68.7845 34.5772 68.7017 34.5772C68.895 33.3919 71.6022 28.8988 72.7901 27.8513C72.9558 28.0443 73.1768 28.2097 73.2597 28.4302C73.5083 29.1193 73.674 29.836 73.8674 30.5527C74.3923 32.3995 74.9447 32.8682 76.9337 33.1162C76.9613 33.7502 76.9613 34.4118 76.989 35.1009C77.2376 41.1928 77.4586 47.3123 77.7348 53.4041C77.9005 57.0152 78.1215 60.6538 78.3149 64.2648C78.4807 67.4623 78.6188 70.6875 78.7293 73.885C78.7845 75.9799 78.8398 78.1025 78.7845 80.1974C78.7293 82.127 78.1768 84.029 77.2928 85.738C76.768 86.7303 75.9668 87.5849 75.221 88.4669C74.3923 89.4041 74.2265 90.3414 74.8343 91.7747C80.6354 91.6645 86.4917 91.5542 92.3204 91.4715C92.8729 90.4241 92.8729 89.4868 92.3204 88.6048C90.7735 86.179 90.3867 83.4777 90.3039 80.6936C90.0552 74.2158 89.8066 67.7656 89.5304 61.2878C89.3923 57.8421 89.2818 54.3965 89.116 50.9784C88.8674 46.2924 88.5635 41.6339 88.2873 36.9754C88.2597 36.3965 88.2873 35.7901 88.2873 35.1836C89.779 34.715 90.8564 33.5848 92.4033 33.6124C92.9005 35.2663 92.5138 35.983 91.0773 36.0657C90.9116 35.8176 90.7182 35.542 90.4972 35.2112C90.3591 35.3766 90.1934 35.4868 90.1934 35.5695C90.2762 36.3414 90.3315 37.1407 90.5525 37.8574C90.8011 38.7395 90.884 39.5665 90.442 40.3934C90.1105 40.9999 90.1657 41.6063 90.4696 42.2403C90.9668 43.3153 91.105 44.3904 90.3039 45.4654C90.0829 45.7686 90.0276 46.4026 90.1934 46.7334C90.9392 48.1668 90.884 49.545 90.2486 50.9509C90.1657 51.1162 90.1657 51.3092 90.1381 51.4746C90.442 52.081 90.8011 52.5221 91.547 52.274C92.0718 52.081 92.3481 51.64 92.2099 51.0611C92.1547 50.7855 91.989 50.5649 91.9061 50.2893C91.768 49.8207 91.5746 49.3245 91.5746 48.8559C91.6022 48.3322 91.7956 47.8084 91.9889 47.3123C92.1271 46.9264 92.3481 46.5956 92.3204 46.2097C92.1823 45.2724 91.989 44.3352 91.9337 43.398C91.9061 42.8743 92.0718 42.2954 92.3204 41.8268C92.6796 41.1652 92.7072 40.6139 92.2376 40.0626C91.6298 39.3184 91.6851 38.6844 92.2099 37.8299C92.8177 36.8927 93.1215 35.7625 93.5912 34.6875C94.1436 34.908 94.0055 35.4041 94.0055 35.7625C94.0332 38.1055 94.0608 40.4486 94.0608 42.7916C94.0608 48.5251 94.0331 54.2587 94.0608 59.9922C94.0608 66.3322 94.1436 72.6721 94.1436 78.9845C94.0884 83.7809 94.0055 88.4945 93.9503 93.2357ZM8.75691 47.395C8.59116 46.6783 8.72928 46.3199 9.36464 46.3199C9.75138 46.3199 9.97238 46.5956 9.8895 46.9539C9.72376 47.5879 9.28177 47.5052 8.75691 47.395ZM9.55801 51.6951C9.50276 52.1637 9.19889 52.274 8.64641 52.081C8.64641 51.7502 8.64641 51.3919 8.64641 50.9784C9.47514 50.9509 9.61326 51.2265 9.55801 51.6951ZM9.33702 42.4608C8.81215 42.4332 8.70166 42.1576 8.8674 41.2479C9.72376 41.1928 10.0552 41.3306 10.0552 41.8268C10.0552 42.2954 9.75138 42.4884 9.33702 42.4608ZM38.9779 77.8268C38.8674 76.6415 38.7569 75.4838 38.6188 74.3536C38.5083 73.3888 39.1436 72.9478 39.7238 72.4241C40.2486 71.9554 40.8287 71.7625 41.6022 72.2862C41.6575 72.7824 41.7956 73.3613 41.8785 73.9677C43.011 75.2908 43.453 76.0351 41.7956 77.7166C41.7956 78.1025 41.7956 78.5435 41.7956 78.9845C40.6906 79.0397 39.9448 78.7089 38.9779 77.8268ZM40.2486 80.3077C39.5856 80.7487 39.0055 81.1346 38.3425 81.5757C37.7348 80.6109 37.7901 79.7564 38.3149 78.8192C39.1436 79.0397 39.9724 79.1499 40.2486 80.3077ZM38.2597 72.8375C37.2376 72.5894 36.2707 72.2035 35.3039 72.2035C34.337 72.2035 33.3978 72.6446 32.2652 72.9478C31.8508 72.3414 31.3812 71.7074 30.9945 71.1561C31.1602 70.2188 31.6298 69.8881 32.3204 69.7227C32.7348 69.6124 33.2044 69.4746 33.5359 69.1989C35.0276 68.0412 35.884 68.0412 37.2376 69.3643C37.2928 69.4195 37.4033 69.4746 37.5138 69.5297C38.232 69.5849 38.9779 69.64 39.779 69.6951C40.2762 71.3766 39.116 72.0106 38.2597 72.8375ZM35 76.0351C34.4199 76.4761 34.3923 77.0274 34.6133 77.6339C34.8066 78.1576 35.0552 78.6538 35.2762 79.1499C35.6906 80.0596 35.9945 80.9692 35.9392 82.0443C35.9116 82.8161 36.326 83.6155 36.4917 84.4149C36.6022 84.8835 36.6851 85.3796 36.768 85.8758C36.2707 86.3996 35.8287 86.8957 35.3039 87.447C35.1657 87.1714 35.0552 87.0336 35.0829 86.9509C35.9669 84.8283 35.221 82.9264 34.3646 80.9968C33.7569 79.6185 33.1492 78.2127 32.6796 76.7793C32.2928 75.6216 32.9006 74.0228 33.7845 73.4715C35.6077 72.3138 37.6243 73.251 37.8177 75.4286C37.8729 76.2832 37.7348 77.1653 37.5967 78.0198C37.4309 78.9019 37.1547 79.7564 36.8785 80.8865C35.9669 79.5358 35.1657 78.5159 36.1326 77.1928C36.0497 76.4761 35.8011 75.98 35 76.0351ZM36.7403 87.8605C36.7127 88.908 36.4365 89.8176 35.442 90.3689C35.8564 89.542 36.2983 88.715 36.7403 87.8605ZM70.884 34.7426C71.105 33.7227 71.105 33.7227 72.0994 33.9432C72.0718 34.6599 71.5746 34.7426 70.884 34.7426ZM72.4033 35.1561C73.0387 34.715 73.3978 34.7977 73.8398 35.2939C73.3149 35.7074 72.9558 35.6247 72.4033 35.1561ZM90.7459 46.568C90.6906 45.8513 90.9392 45.6584 91.5193 45.8237C91.7403 46.5129 91.4365 46.6507 90.7459 46.568ZM91.5746 51.0335C91.6022 51.1162 91.6575 51.1989 91.6851 51.2816C91.4917 51.447 91.2983 51.6951 91.0773 51.7502C90.9392 51.7778 90.7459 51.447 90.5801 51.3092C90.6354 51.1989 90.6906 51.1162 90.7182 51.006C91.0221 51.006 91.2983 51.0335 91.5746 51.0335ZM91.4365 41.7717C91.1326 41.4685 90.7735 41.2479 90.8011 41.1652C90.884 40.9172 91.105 40.6415 91.326 40.5312C91.4365 40.4761 91.8785 40.7793 91.8785 40.9447C91.8508 41.1652 91.6298 41.4133 91.4365 41.7717ZM91.1602 37.7747C91.0497 37.7196 90.9668 37.444 91.0221 37.3061C91.2155 36.8375 91.5193 36.8651 91.9337 37.251C91.8232 37.7747 91.6022 38.0228 91.1602 37.7747Z"></path></svg></svg> <defs><filter id="colors1114224163"><feColorMatrix type="matrix" values="0 0 0 0 0.88671875  0 0 0 0 0.765625  0 0 0 0 0.65625  0 0 0 1 0" class="icon-fecolormatrix"></feColorMatrix></filter> <filter id="colorsf7747835877"><feColorMatrix type="matrix" values="0 0 0 0 0.99609375  0 0 0 0 0.99609375  0 0 0 0 0.99609375  0 0 0 1 0" class="icon-fecolormatrix"></feColorMatrix></filter> <filter id="colorsb9559298969"><feColorMatrix type="matrix" values="0 0 0 0 0  0 0 0 0 0  0 0 0 0 0  0 0 0 1 0" class="icon-fecolormatrix"></feColorMatrix></filter></defs></g></g> <g transform="translate(67,12.77869987487793)"><g data-gra="path-name" fill-rule="" class="tp-name iconsvg-namesvg"><g transform="scale(1)"><g><path d="M40.26-29.27L40.26 0 34.46 0 34.46-18.89 24.27-0.95Q23.89-0.27 23.22 0.09 22.54 0.44 21.77 0.44L21.77 0.44Q21.02 0.44 20.36 0.09 19.71-0.27 19.33-0.95L19.33-0.95 9.09-18.89 9.09 0 3.34 0 3.34-29.27Q3.34-30.26 3.93-31.04 4.51-31.81 5.46-32.08L5.46-32.08Q5.93-32.19 6.39-32.15 6.86-32.12 7.29-31.95 7.72-31.79 8.07-31.49 8.43-31.19 8.67-30.77L8.67-30.77 21.77-8.01 34.86-30.77Q35.37-31.61 36.27-31.97 37.16-32.32 38.14-32.08L38.14-32.08Q39.07-31.81 39.66-31.04 40.26-30.26 40.26-29.27L40.26-29.27ZM52.14-34.02L52.14-28.82 46.39-28.82 46.39-34.02 52.14-34.02ZM52.14-23.91L52.14 0 46.39 0 46.39-23.91 52.14-23.91ZM72.2-13.05L85.74 0 77.45 0 65.85-11.19Q64.88-12.08 64.95-13.41L64.95-13.41Q64.99-14.02 65.27-14.57 65.55-15.11 66.03-15.48L66.03-15.48 76.54-23.96 85.74-23.96 72.2-13.05ZM63.49-34.02L63.49 0 57.74 0 57.74-34.02 63.49-34.02ZM94.81-34.02L94.81-28.82 89.06-28.82 89.06-34.02 94.81-34.02ZM94.81-23.91L94.81 0 89.06 0 89.06-23.91 94.81-23.91Z" transform="translate(-3.3399999141693115, 34.02000045776367)"></path></g> <!----> <!----> <!----> <!----> <!----> <!----> <g data-gra="path-name-1" fill="#e3c4a8" transform="translate(94.47000122070312,0)"><g transform="scale(1)"><path d="M32.01-31.72L32.01-25.97 19.33-25.97 19.33 0 13.58 0 13.58-25.97 0.88-25.97 0.88-31.72 32.01-31.72ZM61.81-31.72L68.22-31.72 53.2-1.13Q52.85-0.42 52.15 0.01 51.45 0.44 50.61 0.44L50.61 0.44Q49.79 0.44 49.1 0.01 48.4-0.42 48.03-1.13L48.03-1.13 33.03-31.72 39.46-31.72 50.61-8.87 61.81-31.72Z" transform="translate(-0.8799999952316284, 34.02000045776367)"></path></g></g></g></g> <!----></g></g><defs v-gra="od"></defs></svg>